# MagicaVoxel @ Ephtracy

# group
o 

# material
mtllib avion.mtl
usemtl palette

# normals
vn -1 0 0
vn 1 0 0
vn 0 0 1
vn 0 0 -1
vn 0 -1 0
vn 0 1 0

# texcoords
vt 0.0332031 0.5
vt 0.0644531 0.5
vt 0.0683594 0.5
vt 0.306641 0.5
vt 0.701172 0.5
vt 0.728516 0.5
vt 0.845703 0.5
vt 0.849609 0.5
vt 0.861328 0.5

# verts
v -2.9 0.8 0.2
v -2.9 0.8 -0.2
v -2.9 1.2 0.2
v -2.9 1.2 -0.2
v -2.1 0.7 0.3
v -2.1 0.7 -0.3
v -2.1 0.8 0.2
v -2.1 0.8 -0.2
v -2.1 1.2 0.2
v -2.1 1.2 -0.2
v -2.1 1.3 0.3
v -2.1 1.3 -0.3
v -1.3 0.6 0.4
v -1.3 0.6 -0.4
v -1.3 0.7 0.3
v -1.3 0.7 -0.3
v -1.3 1.3 0.3
v -1.3 1.3 -0.3
v -1.3 1.4 0.4
v -1.3 1.4 -0.4
v -0.6 0.5 0.5
v -0.6 0.5 -0.5
v -0.6 0.6 0.4
v -0.6 0.6 -0.4
v -0.6 1.4 0.4
v -0.6 1.4 -0.4
v -0.6 1.5 0.5
v -0.6 1.5 -0.5
v 0 0.2 0.8
v 0 0.2 -0.8
v 0 0.5 1
v 0 0.5 0.8
v 0 0.5 0.5
v 0 0.5 -0.5
v 0 0.5 -0.8
v 0 0.5 -1
v 0 1.5 0.5
v 0 1.5 -0.5
v 0 1.7 1
v 0 1.7 0.8
v 0 1.7 -0.8
v 0 1.7 -1
v 0 2 0.8
v 0 2 0.4
v 0 2 -0.4
v 0 2 -0.8
v 0 3 0.4
v 0 3 -0.4
v 0 3.5 0.4
v 0 3.5 -0.4
v 1.2 1 1.2
v 1.2 1 1
v 1.2 1 -1
v 1.2 1 -1.2
v 1.2 1.6 1.2
v 1.2 1.6 1
v 1.2 1.6 -1
v 1.2 1.6 -1.2
v 1.4 1 1.3
v 1.4 1 1.2
v 1.4 1 -1.2
v 1.4 1 -1.3
v 1.4 1.1 1.4
v 1.4 1.1 1.3
v 1.4 1.1 -1.3
v 1.4 1.1 -1.4
v 1.4 1.3 1.4
v 1.4 1.3 1.3
v 1.4 1.3 -1.3
v 1.4 1.3 -1.4
v 1.4 1.6 1.3
v 1.4 1.6 1.2
v 1.4 1.6 -1.2
v 1.4 1.6 -1.3
v 1.6 1.4 1.5
v 1.6 1.4 1.3
v 1.6 1.4 -1.3
v 1.6 1.4 -1.5
v 1.6 1.6 1.5
v 1.6 1.6 1.3
v 1.6 1.6 -1.3
v 1.6 1.6 -1.5
v 2 0 1
v 2 0 -1
v 2 0.2 0.8
v 2 0.2 -0.8
v 2 0.5 1
v 2 0.5 0.8
v 2 0.5 -0.8
v 2 0.5 -1
v 2 1.7 1
v 2 1.7 0.8
v 2 1.7 -0.8
v 2 1.7 -1
v 2 2 1
v 2 2 0.8
v 2 2 -0.8
v 2 2 -1
v 2.1 1 1.4
v 2.1 1 1
v 2.1 1 -1
v 2.1 1 -1.4
v 2.1 1.6 1.4
v 2.1 1.6 1
v 2.1 1.6 -1
v 2.1 1.6 -1.4
v 2.1 2 0.8
v 2.1 2 -0.8
v 2.1 2.3 0.8
v 2.1 2.3 -0.8
v 2.3 2.3 0.8
v 2.3 2.3 -0.8
v 2.3 2.4 0.8
v 2.3 2.4 -0.8
v 2.5 1 2.9
v 2.5 1 2.7
v 2.5 1 2.6
v 2.5 1 1.4
v 2.5 1 -1.4
v 2.5 1 -2.6
v 2.5 1 -2.7
v 2.5 1 -2.9
v 2.5 1.6 2.9
v 2.5 1.6 2.7
v 2.5 1.6 2.6
v 2.5 1.6 1.4
v 2.5 1.6 -1.4
v 2.5 1.6 -2.6
v 2.5 1.6 -2.7
v 2.5 1.6 -2.9
v 2.9 1 3.8
v 2.9 1 3.7
v 2.9 1 3
v 2.9 1 2.9
v 2.9 1 -2.9
v 2.9 1 -3
v 2.9 1 -3.7
v 2.9 1 -3.8
v 2.9 1.6 3.8
v 2.9 1.6 3.7
v 2.9 1.6 3
v 2.9 1.6 2.9
v 2.9 1.6 -2.9
v 2.9 1.6 -3
v 2.9 1.6 -3.7
v 2.9 1.6 -3.8
v 3 0.9 3.7
v 3 0.9 3
v 3 0.9 -3
v 3 0.9 -3.7
v 3 1 3.7
v 3 1 3
v 3 1 -3
v 3 1 -3.7
v 3 1.6 3.7
v 3 1.6 3
v 3 1.6 -3
v 3 1.6 -3.7
v 3 1.7 3.7
v 3 1.7 3
v 3 1.7 -3
v 3 1.7 -3.7
v 3.5 0.9 2.1
v 3.5 0.9 1.4
v 3.5 0.9 -1.4
v 3.5 0.9 -2.1
v 3.5 1 2.1
v 3.5 1 1.8
v 3.5 1 1.7
v 3.5 1 1.4
v 3.5 1 -1.4
v 3.5 1 -1.7
v 3.5 1 -1.8
v 3.5 1 -2.1
v 3.5 1.6 2.1
v 3.5 1.6 1.8
v 3.5 1.6 1.7
v 3.5 1.6 1.4
v 3.5 1.6 -1.4
v 3.5 1.6 -1.7
v 3.5 1.6 -1.8
v 3.5 1.6 -2.1
v 3.5 1.7 2.1
v 3.5 1.7 1.4
v 3.5 1.7 -1.4
v 3.5 1.7 -2.1
v 3.9 0.6 3.4
v 3.9 0.6 3.3
v 3.9 0.6 -3.3
v 3.9 0.6 -3.4
v 3.9 0.9 3.4
v 3.9 0.9 3.3
v 3.9 0.9 -3.3
v 3.9 0.9 -3.4
v 3.9 1.1 3.4
v 3.9 1.1 3.3
v 3.9 1.1 -3.3
v 3.9 1.1 -3.4
v 3.9 1.3 2.2
v 3.9 1.3 2.1
v 3.9 1.3 1.9
v 3.9 1.3 1.6
v 3.9 1.3 1.4
v 3.9 1.3 1.2
v 3.9 1.3 -1.2
v 3.9 1.3 -1.4
v 3.9 1.3 -1.6
v 3.9 1.3 -1.9
v 3.9 1.3 -2.1
v 3.9 1.3 -2.2
v 3.9 1.4 2.2
v 3.9 1.4 2.1
v 3.9 1.4 1.9
v 3.9 1.4 1.6
v 3.9 1.4 1.4
v 3.9 1.4 1.2
v 3.9 1.4 -1.2
v 3.9 1.4 -1.4
v 3.9 1.4 -1.6
v 3.9 1.4 -1.9
v 3.9 1.4 -2.1
v 3.9 1.4 -2.2
v 3.9 1.5 3.4
v 3.9 1.5 3.3
v 3.9 1.5 -3.3
v 3.9 1.5 -3.4
v 3.9 1.7 3.4
v 3.9 1.7 3.3
v 3.9 1.7 -3.3
v 3.9 1.7 -3.4
v 3.9 2 3.4
v 3.9 2 3.3
v 3.9 2 -3.3
v 3.9 2 -3.4
v 1.1 3.3 0.4
v 1.1 3.3 -0.4
v 1.1 3.5 0.4
v 1.1 3.5 -0.4
v 1.3 2.7 0.4
v 1.3 2.7 -0.4
v 1.3 3 0.4
v 1.3 3 -0.4
v 1.3 3.3 0.4
v 1.3 3.3 -0.4
v 1.5 2 0.4
v 1.5 2 -0.4
v 1.5 2.5 0.4
v 1.5 2.5 -0.4
v 1.5 2.6 0.4
v 1.5 2.6 -0.4
v 1.5 2.7 0.4
v 1.5 2.7 -0.4
v 1.6 1.1 1.4
v 1.6 1.1 1.3
v 1.6 1.1 -1.3
v 1.6 1.1 -1.4
v 1.6 1.3 1.4
v 1.6 1.3 1.3
v 1.6 1.3 -1.3
v 1.6 1.3 -1.4
v 1.8 1 1.3
v 1.8 1 1
v 1.8 1 -1
v 1.8 1 -1.3
v 1.8 1.4 1.5
v 1.8 1.4 1.3
v 1.8 1.4 -1.3
v 1.8 1.4 -1.5
v 1.8 1.6 1.5
v 1.8 1.6 1.3
v 1.8 1.6 1
v 1.8 1.6 -1
v 1.8 1.6 -1.3
v 1.8 1.6 -1.5
v 3.6 1 3.8
v 3.6 1 3.7
v 3.6 1 3
v 3.6 1 2.1
v 3.6 1 1.4
v 3.6 1 1
v 3.6 1 -1
v 3.6 1 -1.4
v 3.6 1 -2.1
v 3.6 1 -3
v 3.6 1 -3.7
v 3.6 1 -3.8
v 3.6 1.6 3.8
v 3.6 1.6 3.7
v 3.6 1.6 3
v 3.6 1.6 2.1
v 3.6 1.6 1.4
v 3.6 1.6 1
v 3.6 1.6 -1
v 3.6 1.6 -1.4
v 3.6 1.6 -2.1
v 3.6 1.6 -3
v 3.6 1.6 -3.7
v 3.6 1.6 -3.8
v 3.8 0.9 3.7
v 3.8 0.9 3
v 3.8 0.9 2.1
v 3.8 0.9 1.4
v 3.8 0.9 -1.4
v 3.8 0.9 -2.1
v 3.8 0.9 -3
v 3.8 0.9 -3.7
v 3.8 1.1 3.5
v 3.8 1.1 3.2
v 3.8 1.1 -3.2
v 3.8 1.1 -3.5
v 3.8 1.2 1.9
v 3.8 1.2 1.6
v 3.8 1.2 -1.6
v 3.8 1.2 -1.9
v 3.8 1.5 3.5
v 3.8 1.5 3.2
v 3.8 1.5 1.9
v 3.8 1.5 1.6
v 3.8 1.5 -1.6
v 3.8 1.5 -1.9
v 3.8 1.5 -3.2
v 3.8 1.5 -3.5
v 3.8 1.7 3.7
v 3.8 1.7 3
v 3.8 1.7 2.1
v 3.8 1.7 1.4
v 3.8 1.7 -1.4
v 3.8 1.7 -2.1
v 3.8 1.7 -3
v 3.8 1.7 -3.7
v 3.8 2 0.8
v 3.8 2 -0.8
v 3.8 2.1 0.7
v 3.8 2.1 -0.7
v 3.8 2.3 0.7
v 3.8 2.3 -0.7
v 3.8 2.4 0.8
v 3.8 2.4 -0.8
v 3.9 1.1 3.5
v 3.9 1.1 3.4
v 3.9 1.1 3.3
v 3.9 1.1 3.2
v 3.9 1.1 -3.2
v 3.9 1.1 -3.3
v 3.9 1.1 -3.4
v 3.9 1.1 -3.5
v 3.9 1.2 3.4
v 3.9 1.2 3.3
v 3.9 1.2 1.9
v 3.9 1.2 1.6
v 3.9 1.2 -1.6
v 3.9 1.2 -1.9
v 3.9 1.2 -3.3
v 3.9 1.2 -3.4
v 3.9 1.3 1.9
v 3.9 1.3 1.8
v 3.9 1.3 1.7
v 3.9 1.3 1.6
v 3.9 1.3 -1.6
v 3.9 1.3 -1.7
v 3.9 1.3 -1.8
v 3.9 1.3 -1.9
v 3.9 1.4 3.4
v 3.9 1.4 3.3
v 3.9 1.4 1.9
v 3.9 1.4 1.8
v 3.9 1.4 1.7
v 3.9 1.4 1.6
v 3.9 1.4 -1.6
v 3.9 1.4 -1.7
v 3.9 1.4 -1.8
v 3.9 1.4 -1.9
v 3.9 1.4 -3.3
v 3.9 1.4 -3.4
v 3.9 1.5 3.5
v 3.9 1.5 3.4
v 3.9 1.5 3.3
v 3.9 1.5 3.2
v 3.9 1.5 1.9
v 3.9 1.5 1.6
v 3.9 1.5 -1.6
v 3.9 1.5 -1.9
v 3.9 1.5 -3.2
v 3.9 1.5 -3.3
v 3.9 1.5 -3.4
v 3.9 1.5 -3.5
v 4 0 1
v 4 0 -1
v 4 0.2 0.8
v 4 0.2 -0.8
v 4 0.6 3.4
v 4 0.6 3.3
v 4 0.6 -3.3
v 4 0.6 -3.4
v 4 0.7 1
v 4 0.7 0.8
v 4 0.7 -0.8
v 4 0.7 -1
v 4 0.8 1
v 4 0.8 0.8
v 4 0.8 -0.8
v 4 0.8 -1
v 4 0.9 3.4
v 4 0.9 3.3
v 4 0.9 -3.3
v 4 0.9 -3.4
v 4 1.1 1
v 4 1.1 0.8
v 4 1.1 -0.8
v 4 1.1 -1
v 4 1.2 3.4
v 4 1.2 3.3
v 4 1.2 1
v 4 1.2 0.8
v 4 1.2 -0.8
v 4 1.2 -1
v 4 1.2 -3.3
v 4 1.2 -3.4
v 4 1.3 2.2
v 4 1.3 2.1
v 4 1.3 1.8
v 4 1.3 1.7
v 4 1.3 1.4
v 4 1.3 1.2
v 4 1.3 -1.2
v 4 1.3 -1.4
v 4 1.3 -1.7
v 4 1.3 -1.8
v 4 1.3 -2.1
v 4 1.3 -2.2
v 4 1.4 3.4
v 4 1.4 3.3
v 4 1.4 2.2
v 4 1.4 2.1
v 4 1.4 1.8
v 4 1.4 1.7
v 4 1.4 1.4
v 4 1.4 1.2
v 4 1.4 -1.2
v 4 1.4 -1.4
v 4 1.4 -1.7
v 4 1.4 -1.8
v 4 1.4 -2.1
v 4 1.4 -2.2
v 4 1.4 -3.3
v 4 1.4 -3.4
v 4 1.7 3.4
v 4 1.7 3.3
v 4 1.7 -3.3
v 4 1.7 -3.4
v 4 1.8 0.8
v 4 1.8 -0.8
v 4 2 3.4
v 4 2 3.3
v 4 2 1
v 4 2 -1
v 4 2 -3.3
v 4 2 -3.4
v 4.5 0.2 0.8
v 4.5 0.2 -0.8
v 4.5 0.3 0.7
v 4.5 0.3 -0.7
v 4.5 0.4 0.6
v 4.5 0.4 0.1
v 4.5 0.4 -0.0999999
v 4.5 0.4 -0.6
v 4.5 1 0.6
v 4.5 1 -0.6
v 4.5 1.1 0.6
v 4.5 1.1 -0.6
v 4.5 1.5 0.6
v 4.5 1.5 -0.6
v 4.5 1.6 0.7
v 4.5 1.6 -0.7
v 4.5 1.8 0.8
v 4.5 1.8 -0.8
v 4.6 0.4 0.6
v 4.6 0.4 0.1
v 4.6 0.4 -0.0999999
v 4.6 0.4 -0.6
v 4.6 1 0.6
v 4.6 1 0.1
v 4.6 1 -0.0999999
v 4.6 1 -0.6
v 4.6 1.1 0.6
v 4.6 1.1 -0.6
v 4.6 1.5 0.6
v 4.6 1.5 -0.6
v 2.9 1 3.8
v 2.9 1.6 3.8
v 3.3 1 3.8
v 3.3 1.6 3.8
v 3.4 1 3.8
v 3.4 1.6 3.8
v 3.6 1 3.8
v 3.6 1.6 3.8
v 3 0.9 3.7
v 3 1 3.7
v 3 1.6 3.7
v 3 1.7 3.7
v 3.3 0.9 3.7
v 3.3 1 3.7
v 3.3 1.6 3.7
v 3.3 1.7 3.7
v 3.4 0.9 3.7
v 3.4 1 3.7
v 3.4 1.6 3.7
v 3.4 1.7 3.7
v 3.6 1 3.7
v 3.6 1.6 3.7
v 3.7 1 3.7
v 3.7 1.6 3.7
v 3.8 0.9 3.7
v 3.8 1.7 3.7
v 3.8 1.1 3.5
v 3.8 1.5 3.5
v 3.9 1.1 3.5
v 3.9 1.5 3.5
v 3.9 0.6 3.4
v 3.9 0.9 3.4
v 3.9 1.1 3.4
v 3.9 1.2 3.4
v 3.9 1.4 3.4
v 3.9 1.5 3.4
v 3.9 1.7 3.4
v 3.9 2 3.4
v 4 0.6 3.4
v 4 0.9 3.4
v 4 1.2 3.4
v 4 1.4 3.4
v 4 1.7 3.4
v 4 2 3.4
v 2.5 1 2.9
v 2.5 1.6 2.9
v 2.9 1 2.9
v 2.9 1.6 2.9
v 3.9 1.3 2.2
v 3.9 1.4 2.2
v 4 1.3 2.2
v 4 1.4 2.2
v 3.5 0.9 2.1
v 3.5 1 2.1
v 3.5 1.6 2.1
v 3.5 1.7 2.1
v 3.6 1 2.1
v 3.6 1.6 2.1
v 3.8 0.9 2.1
v 3.8 1.7 2.1
v 3.8 1.2 1.9
v 3.8 1.5 1.9
v 3.9 1.2 1.9
v 3.9 1.3 1.9
v 3.9 1.4 1.9
v 3.9 1.5 1.9
v 1.6 1.4 1.5
v 1.6 1.6 1.5
v 1.8 1.4 1.5
v 1.8 1.6 1.5
v 1.4 1.1 1.4
v 1.4 1.3 1.4
v 1.6 1.1 1.4
v 1.6 1.3 1.4
v 2.1 1 1.4
v 2.1 1.6 1.4
v 2.5 1 1.4
v 2.5 1.6 1.4
v 1.4 1 1.3
v 1.4 1.1 1.3
v 1.4 1.3 1.3
v 1.4 1.6 1.3
v 1.6 1.1 1.3
v 1.6 1.3 1.3
v 1.6 1.4 1.3
v 1.6 1.6 1.3
v 1.8 1 1.3
v 1.8 1.4 1.3
v 1.2 1 1.2
v 1.2 1.6 1.2
v 1.4 1 1.2
v 1.4 1.6 1.2
v 0 0.5 1
v 0 1.7 1
v 0.6 0.5 1
v 0.6 1.7 1
v 0.7 0.5 1
v 0.7 1.7 1
v 1.2 1 1
v 1.2 1.6 1
v 1.8 1 1
v 1.8 1.6 1
v 2 0 1
v 2 0.5 1
v 2 1.7 1
v 2 2 1
v 2.1 1 1
v 2.1 1.6 1
v 3.3 0 1
v 3.3 1 1
v 3.3 1.6 1
v 3.3 2 1
v 3.4 0 1
v 3.4 1 1
v 3.4 1.6 1
v 3.4 2 1
v 3.6 1 1
v 3.6 1.6 1
v 3.7 0.7 1
v 3.7 1.2 1
v 3.8 0.8 1
v 3.8 1.1 1
v 4 0 1
v 4 0.7 1
v 4 0.8 1
v 4 1.1 1
v 4 1.2 1
v 4 2 1
v 0 0.2 0.8
v 0 0.5 0.8
v 0 1.7 0.8
v 0 2 0.8
v 0.6 0.2 0.8
v 0.6 0.5 0.8
v 0.6 1.7 0.8
v 0.6 2 0.8
v 0.7 0.2 0.8
v 0.7 0.5 0.8
v 0.7 1.7 0.8
v 0.7 2 0.8
v 2 0.2 0.8
v 2 0.5 0.8
v 2 1.7 0.8
v 2 2 0.8
v 2.1 2 0.8
v 2.1 2.3 0.8
v 2.2 2.1 0.8
v 2.2 2.2 0.8
v 2.3 2.3 0.8
v 2.3 2.4 0.8
v 2.4 2.2 0.8
v 2.4 2.3 0.8
v 3.3 2 0.8
v 3.3 2.1 0.8
v 3.3 2.3 0.8
v 3.4 2 0.8
v 3.4 2.1 0.8
v 3.4 2.3 0.8
v 3.7 2.1 0.8
v 3.7 2.3 0.8
v 3.8 2 0.8
v 3.8 2.4 0.8
v 4 0.2 0.8
v 4 0.7 0.8
v 4 0.8 0.8
v 4 1.1 0.8
v 4 1.2 0.8
v 4 1.8 0.8
v 4.2 0.8 0.8
v 4.2 1.1 0.8
v 4.3 0.7 0.8
v 4.3 1.2 0.8
v 4.5 0.2 0.8
v 4.5 1.8 0.8
v 4.5 0.4 0.6
v 4.5 1 0.6
v 4.5 1.1 0.6
v 4.5 1.5 0.6
v 4.6 0.4 0.6
v 4.6 1 0.6
v 4.6 1.1 0.6
v 4.6 1.5 0.6
v -0.6 0.5 0.5
v -0.6 1.5 0.5
v 0 0.5 0.5
v 0 1.5 0.5
v -1.3 0.6 0.4
v -1.3 1.4 0.4
v -0.6 0.6 0.4
v -0.6 1.4 0.4
v 0 2 0.4
v 0 3 0.4
v 0 3.5 0.4
v 0.6 2 0.4
v 0.6 3 0.4
v 0.6 3.5 0.4
v 0.7 2 0.4
v 0.7 2.5 0.4
v 0.7 2.6 0.4
v 0.7 3 0.4
v 0.7 3.5 0.4
v 1.1 3.3 0.4
v 1.1 3.5 0.4
v 1.3 2.7 0.4
v 1.3 3 0.4
v 1.3 3.3 0.4
v 1.5 2 0.4
v 1.5 2.5 0.4
v 1.5 2.6 0.4
v 1.5 2.7 0.4
v -2.1 0.7 0.3
v -2.1 1.3 0.3
v -1.3 0.7 0.3
v -1.3 1.3 0.3
v -2.9 0.8 0.2
v -2.9 1.2 0.2
v -2.1 0.8 0.2
v -2.1 1.2 0.2
v 3.9 1.3 -1.2
v 3.9 1.4 -1.2
v 4 1.3 -1.2
v 4 1.4 -1.2
v 3.5 0.9 -1.4
v 3.5 1 -1.4
v 3.5 1.6 -1.4
v 3.5 1.7 -1.4
v 3.6 1 -1.4
v 3.6 1.6 -1.4
v 3.8 0.9 -1.4
v 3.8 1.7 -1.4
v 3.8 1.2 -1.6
v 3.8 1.5 -1.6
v 3.9 1.2 -1.6
v 3.9 1.3 -1.6
v 3.9 1.4 -1.6
v 3.9 1.5 -1.6
v 3 0.9 -3
v 3 1 -3
v 3 1.6 -3
v 3 1.7 -3
v 3.3 0.9 -3
v 3.3 1 -3
v 3.3 1.6 -3
v 3.3 1.7 -3
v 3.4 0.9 -3
v 3.4 1 -3
v 3.4 1.6 -3
v 3.4 1.7 -3
v 3.6 1 -3
v 3.6 1.6 -3
v 3.7 1 -3
v 3.7 1.6 -3
v 3.8 0.9 -3
v 3.8 1.7 -3
v 3.8 1.1 -3.2
v 3.8 1.5 -3.2
v 3.9 1.1 -3.2
v 3.9 1.5 -3.2
v 3.9 0.6 -3.3
v 3.9 0.9 -3.3
v 3.9 1.1 -3.3
v 3.9 1.2 -3.3
v 3.9 1.4 -3.3
v 3.9 1.5 -3.3
v 3.9 1.7 -3.3
v 3.9 2 -3.3
v 4 0.6 -3.3
v 4 0.9 -3.3
v 4 1.2 -3.3
v 4 1.4 -3.3
v 4 1.7 -3.3
v 4 2 -3.3
v 3.9 0.6 3.3
v 3.9 0.9 3.3
v 3.9 1.1 3.3
v 3.9 1.2 3.3
v 3.9 1.4 3.3
v 3.9 1.5 3.3
v 3.9 1.7 3.3
v 3.9 2 3.3
v 4 0.6 3.3
v 4 0.9 3.3
v 4 1.2 3.3
v 4 1.4 3.3
v 4 1.7 3.3
v 4 2 3.3
v 3.8 1.1 3.2
v 3.8 1.5 3.2
v 3.9 1.1 3.2
v 3.9 1.5 3.2
v 3 0.9 3
v 3 1 3
v 3 1.6 3
v 3 1.7 3
v 3.3 0.9 3
v 3.3 1 3
v 3.3 1.6 3
v 3.3 1.7 3
v 3.4 0.9 3
v 3.4 1 3
v 3.4 1.6 3
v 3.4 1.7 3
v 3.6 1 3
v 3.6 1.6 3
v 3.7 1 3
v 3.7 1.6 3
v 3.8 0.9 3
v 3.8 1.7 3
v 3.8 1.2 1.6
v 3.8 1.5 1.6
v 3.9 1.2 1.6
v 3.9 1.3 1.6
v 3.9 1.4 1.6
v 3.9 1.5 1.6
v 3.5 0.9 1.4
v 3.5 1 1.4
v 3.5 1.6 1.4
v 3.5 1.7 1.4
v 3.6 1 1.4
v 3.6 1.6 1.4
v 3.8 0.9 1.4
v 3.8 1.7 1.4
v 3.9 1.3 1.2
v 3.9 1.4 1.2
v 4 1.3 1.2
v 4 1.4 1.2
v -2.9 0.8 -0.2
v -2.9 1.2 -0.2
v -2.1 0.8 -0.2
v -2.1 1.2 -0.2
v -2.1 0.7 -0.3
v -2.1 1.3 -0.3
v -1.3 0.7 -0.3
v -1.3 1.3 -0.3
v -1.3 0.6 -0.4
v -1.3 1.4 -0.4
v -0.6 0.6 -0.4
v -0.6 1.4 -0.4
v 0 2 -0.4
v 0 3 -0.4
v 0 3.5 -0.4
v 0.6 2 -0.4
v 0.6 3 -0.4
v 0.6 3.5 -0.4
v 0.7 2 -0.4
v 0.7 2.5 -0.4
v 0.7 2.6 -0.4
v 0.7 3 -0.4
v 0.7 3.5 -0.4
v 1.1 3.3 -0.4
v 1.1 3.5 -0.4
v 1.3 2.7 -0.4
v 1.3 3 -0.4
v 1.3 3.3 -0.4
v 1.5 2 -0.4
v 1.5 2.5 -0.4
v 1.5 2.6 -0.4
v 1.5 2.7 -0.4
v -0.6 0.5 -0.5
v -0.6 1.5 -0.5
v 0 0.5 -0.5
v 0 1.5 -0.5
v 4.5 0.4 -0.6
v 4.5 1 -0.6
v 4.5 1.1 -0.6
v 4.5 1.5 -0.6
v 4.6 0.4 -0.6
v 4.6 1 -0.6
v 4.6 1.1 -0.6
v 4.6 1.5 -0.6
v 0 0.2 -0.8
v 0 0.5 -0.8
v 0 1.7 -0.8
v 0 2 -0.8
v 0.6 0.2 -0.8
v 0.6 0.5 -0.8
v 0.6 1.7 -0.8
v 0.6 2 -0.8
v 0.7 0.2 -0.8
v 0.7 0.5 -0.8
v 0.7 1.7 -0.8
v 0.7 2 -0.8
v 2 0.2 -0.8
v 2 0.5 -0.8
v 2 1.7 -0.8
v 2 2 -0.8
v 2.1 2 -0.8
v 2.1 2.3 -0.8
v 2.2 2.1 -0.8
v 2.2 2.2 -0.8
v 2.3 2.3 -0.8
v 2.3 2.4 -0.8
v 2.4 2.2 -0.8
v 2.4 2.3 -0.8
v 3.3 2 -0.8
v 3.3 2.1 -0.8
v 3.3 2.3 -0.8
v 3.4 2 -0.8
v 3.4 2.1 -0.8
v 3.4 2.3 -0.8
v 3.7 2.1 -0.8
v 3.7 2.3 -0.8
v 3.8 2 -0.8
v 3.8 2.4 -0.8
v 4 0.2 -0.8
v 4 0.7 -0.8
v 4 0.8 -0.8
v 4 1.1 -0.8
v 4 1.2 -0.8
v 4 1.8 -0.8
v 4.2 0.8 -0.8
v 4.2 1.1 -0.8
v 4.3 0.7 -0.8
v 4.3 1.2 -0.8
v 4.5 0.2 -0.8
v 4.5 1.8 -0.8
v 0 0.5 -1
v 0 1.7 -1
v 0.6 0.5 -1
v 0.6 1.7 -1
v 0.7 0.5 -1
v 0.7 1.7 -1
v 1.2 1 -1
v 1.2 1.6 -1
v 1.8 1 -1
v 1.8 1.6 -1
v 2 0 -1
v 2 0.5 -1
v 2 1.7 -1
v 2 2 -1
v 2.1 1 -1
v 2.1 1.6 -1
v 3.3 0 -1
v 3.3 1 -1
v 3.3 1.6 -1
v 3.3 2 -1
v 3.4 0 -1
v 3.4 1 -1
v 3.4 1.6 -1
v 3.4 2 -1
v 3.6 1 -1
v 3.6 1.6 -1
v 3.7 0.7 -1
v 3.7 1.2 -1
v 3.8 0.8 -1
v 3.8 1.1 -1
v 4 0 -1
v 4 0.7 -1
v 4 0.8 -1
v 4 1.1 -1
v 4 1.2 -1
v 4 2 -1
v 1.2 1 -1.2
v 1.2 1.6 -1.2
v 1.4 1 -1.2
v 1.4 1.6 -1.2
v 1.4 1 -1.3
v 1.4 1.1 -1.3
v 1.4 1.3 -1.3
v 1.4 1.6 -1.3
v 1.6 1.1 -1.3
v 1.6 1.3 -1.3
v 1.6 1.4 -1.3
v 1.6 1.6 -1.3
v 1.8 1 -1.3
v 1.8 1.4 -1.3
v 1.4 1.1 -1.4
v 1.4 1.3 -1.4
v 1.6 1.1 -1.4
v 1.6 1.3 -1.4
v 2.1 1 -1.4
v 2.1 1.6 -1.4
v 2.5 1 -1.4
v 2.5 1.6 -1.4
v 1.6 1.4 -1.5
v 1.6 1.6 -1.5
v 1.8 1.4 -1.5
v 1.8 1.6 -1.5
v 3.8 1.2 -1.9
v 3.8 1.5 -1.9
v 3.9 1.2 -1.9
v 3.9 1.3 -1.9
v 3.9 1.4 -1.9
v 3.9 1.5 -1.9
v 3.5 0.9 -2.1
v 3.5 1 -2.1
v 3.5 1.6 -2.1
v 3.5 1.7 -2.1
v 3.6 1 -2.1
v 3.6 1.6 -2.1
v 3.8 0.9 -2.1
v 3.8 1.7 -2.1
v 3.9 1.3 -2.2
v 3.9 1.4 -2.2
v 4 1.3 -2.2
v 4 1.4 -2.2
v 2.5 1 -2.9
v 2.5 1.6 -2.9
v 2.9 1 -2.9
v 2.9 1.6 -2.9
v 3.9 0.6 -3.4
v 3.9 0.9 -3.4
v 3.9 1.1 -3.4
v 3.9 1.2 -3.4
v 3.9 1.4 -3.4
v 3.9 1.5 -3.4
v 3.9 1.7 -3.4
v 3.9 2 -3.4
v 4 0.6 -3.4
v 4 0.9 -3.4
v 4 1.2 -3.4
v 4 1.4 -3.4
v 4 1.7 -3.4
v 4 2 -3.4
v 3.8 1.1 -3.5
v 3.8 1.5 -3.5
v 3.9 1.1 -3.5
v 3.9 1.5 -3.5
v 3 0.9 -3.7
v 3 1 -3.7
v 3 1.6 -3.7
v 3 1.7 -3.7
v 3.3 0.9 -3.7
v 3.3 1 -3.7
v 3.3 1.6 -3.7
v 3.3 1.7 -3.7
v 3.4 0.9 -3.7
v 3.4 1 -3.7
v 3.4 1.6 -3.7
v 3.4 1.7 -3.7
v 3.6 1 -3.7
v 3.6 1.6 -3.7
v 3.7 1 -3.7
v 3.7 1.6 -3.7
v 3.8 0.9 -3.7
v 3.8 1.7 -3.7
v 2.9 1 -3.8
v 2.9 1.6 -3.8
v 3.3 1 -3.8
v 3.3 1.6 -3.8
v 3.4 1 -3.8
v 3.4 1.6 -3.8
v 3.6 1 -3.8
v 3.6 1.6 -3.8
v 2 0 1
v 3.3 0 1
v 3.4 0 1
v 4 0 1
v 2 0 -1
v 3.3 0 -1
v 3.4 0 -1
v 4 0 -1
v 0 0.2 0.8
v 0.6 0.2 0.8
v 0.7 0.2 0.8
v 2 0.2 0.8
v 4 0.2 0.8
v 4.5 0.2 0.8
v 0 0.2 -0.8
v 0.6 0.2 -0.8
v 0.7 0.2 -0.8
v 2 0.2 -0.8
v 4 0.2 -0.8
v 4.5 0.2 -0.8
v 4.5 0.4 0.6
v 4.6 0.4 0.6
v 4.5 0.4 0.1
v 4.6 0.4 0.1
v 4.5 0.4 -0.0999999
v 4.6 0.4 -0.0999999
v 4.5 0.4 -0.6
v 4.6 0.4 -0.6
v 0 0.5 1
v 0.6 0.5 1
v 0.7 0.5 1
v 2 0.5 1
v 0 0.5 0.8
v 0.6 0.5 0.8
v 0.7 0.5 0.8
v 2 0.5 0.8
v -0.6 0.5 0.5
v 0 0.5 0.5
v -0.6 0.5 -0.5
v 0 0.5 -0.5
v 0 0.5 -0.8
v 0.6 0.5 -0.8
v 0.7 0.5 -0.8
v 2 0.5 -0.8
v 0 0.5 -1
v 0.6 0.5 -1
v 0.7 0.5 -1
v 2 0.5 -1
v 3.9 0.6 3.4
v 4 0.6 3.4
v 3.9 0.6 3.3
v 4 0.6 3.3
v -1.3 0.6 0.4
v -0.6 0.6 0.4
v -1.3 0.6 -0.4
v -0.6 0.6 -0.4
v 3.9 0.6 -3.3
v 4 0.6 -3.3
v 3.9 0.6 -3.4
v 4 0.6 -3.4
v -2.1 0.7 0.3
v -1.3 0.7 0.3
v -2.1 0.7 -0.3
v -1.3 0.7 -0.3
v -2.9 0.8 0.2
v -2.1 0.8 0.2
v -2.9 0.8 -0.2
v -2.1 0.8 -0.2
v 3 0.9 3.7
v 3.3 0.9 3.7
v 3.4 0.9 3.7
v 3.8 0.9 3.7
v 3 0.9 3
v 3.3 0.9 3
v 3.4 0.9 3
v 3.8 0.9 3
v 3.5 0.9 2.1
v 3.8 0.9 2.1
v 3.5 0.9 1.4
v 3.8 0.9 1.4
v 3.5 0.9 -1.4
v 3.8 0.9 -1.4
v 3.5 0.9 -2.1
v 3.8 0.9 -2.1
v 3 0.9 -3
v 3.3 0.9 -3
v 3.4 0.9 -3
v 3.8 0.9 -3
v 3 0.9 -3.7
v 3.3 0.9 -3.7
v 3.4 0.9 -3.7
v 3.8 0.9 -3.7
v 2.9 1 3.8
v 3.3 1 3.8
v 3.4 1 3.8
v 3.6 1 3.8
v 2.9 1 3.7
v 3 1 3.7
v 3.3 1 3.7
v 3.4 1 3.7
v 3.6 1 3.7
v 2.9 1 3
v 3 1 3
v 3.3 1 3
v 3.4 1 3
v 3.6 1 3
v 2.5 1 2.9
v 2.9 1 2.9
v 2.5 1 2.7
v 3.3 1 2.7
v 2.5 1 2.6
v 3.3 1 2.6
v 3.5 1 2.1
v 3.6 1 2.1
v 3.4 1 1.8
v 3.5 1 1.8
v 3.4 1 1.7
v 3.5 1 1.7
v 2.1 1 1.4
v 2.5 1 1.4
v 3.5 1 1.4
v 3.6 1 1.4
v 1.4 1 1.3
v 1.8 1 1.3
v 1.2 1 1.2
v 1.4 1 1.2
v 1.2 1 1
v 1.8 1 1
v 2.1 1 1
v 3.3 1 1
v 3.4 1 1
v 3.6 1 1
v 1.2 1 -1
v 1.8 1 -1
v 2.1 1 -1
v 3.3 1 -1
v 3.4 1 -1
v 3.6 1 -1
v 1.2 1 -1.2
v 1.4 1 -1.2
v 1.4 1 -1.3
v 1.8 1 -1.3
v 2.1 1 -1.4
v 2.5 1 -1.4
v 3.5 1 -1.4
v 3.6 1 -1.4
v 3.4 1 -1.7
v 3.5 1 -1.7
v 3.4 1 -1.8
v 3.5 1 -1.8
v 3.5 1 -2.1
v 3.6 1 -2.1
v 2.5 1 -2.6
v 3.3 1 -2.6
v 2.5 1 -2.7
v 3.3 1 -2.7
v 2.5 1 -2.9
v 2.9 1 -2.9
v 2.9 1 -3
v 3 1 -3
v 3.3 1 -3
v 3.4 1 -3
v 3.6 1 -3
v 2.9 1 -3.7
v 3 1 -3.7
v 3.3 1 -3.7
v 3.4 1 -3.7
v 3.6 1 -3.7
v 2.9 1 -3.8
v 3.3 1 -3.8
v 3.4 1 -3.8
v 3.6 1 -3.8
v 3.8 1.1 3.5
v 3.9 1.1 3.5
v 3.9 1.1 3.4
v 3.9 1.1 3.3
v 3.8 1.1 3.2
v 3.9 1.1 3.2
v 1.4 1.1 1.4
v 1.6 1.1 1.4
v 1.4 1.1 1.3
v 1.6 1.1 1.3
v 1.4 1.1 -1.3
v 1.6 1.1 -1.3
v 1.4 1.1 -1.4
v 1.6 1.1 -1.4
v 3.8 1.1 -3.2
v 3.9 1.1 -3.2
v 3.9 1.1 -3.3
v 3.9 1.1 -3.4
v 3.8 1.1 -3.5
v 3.9 1.1 -3.5
v 3.8 1.2 1.9
v 3.9 1.2 1.9
v 3.8 1.2 1.6
v 3.9 1.2 1.6
v 3.8 1.2 -1.6
v 3.9 1.2 -1.6
v 3.8 1.2 -1.9
v 3.9 1.2 -1.9
v 3.9 1.3 2.2
v 4 1.3 2.2
v 3.9 1.3 2.1
v 4 1.3 2.1
v 3.9 1.3 1.9
v 3.9 1.3 1.8
v 4 1.3 1.8
v 3.9 1.3 1.7
v 4 1.3 1.7
v 3.9 1.3 1.6
v 3.9 1.3 1.4
v 4 1.3 1.4
v 3.9 1.3 1.2
v 4 1.3 1.2
v 3.9 1.3 -1.2
v 4 1.3 -1.2
v 3.9 1.3 -1.4
v 4 1.3 -1.4
v 3.9 1.3 -1.6
v 3.9 1.3 -1.7
v 4 1.3 -1.7
v 3.9 1.3 -1.8
v 4 1.3 -1.8
v 3.9 1.3 -1.9
v 3.9 1.3 -2.1
v 4 1.3 -2.1
v 3.9 1.3 -2.2
v 4 1.3 -2.2
v 1.6 1.4 1.5
v 1.8 1.4 1.5
v 1.6 1.4 1.3
v 1.8 1.4 1.3
v 1.6 1.4 -1.3
v 1.8 1.4 -1.3
v 1.6 1.4 -1.5
v 1.8 1.4 -1.5
v -2.9 1.2 0.2
v -2.1 1.2 0.2
v -2.9 1.2 -0.2
v -2.1 1.2 -0.2
v 1.4 1.3 1.4
v 1.6 1.3 1.4
v 1.4 1.3 1.3
v 1.6 1.3 1.3
v -2.1 1.3 0.3
v -1.3 1.3 0.3
v -2.1 1.3 -0.3
v -1.3 1.3 -0.3
v 1.4 1.3 -1.3
v 1.6 1.3 -1.3
v 1.4 1.3 -1.4
v 1.6 1.3 -1.4
v 3.9 1.4 2.2
v 4 1.4 2.2
v 3.9 1.4 2.1
v 4 1.4 2.1
v 3.9 1.4 1.9
v 3.9 1.4 1.8
v 4 1.4 1.8
v 3.9 1.4 1.7
v 4 1.4 1.7
v 3.9 1.4 1.6
v 3.9 1.4 1.4
v 4 1.4 1.4
v 3.9 1.4 1.2
v 4 1.4 1.2
v -1.3 1.4 0.4
v -0.6 1.4 0.4
v -1.3 1.4 -0.4
v -0.6 1.4 -0.4
v 3.9 1.4 -1.2
v 4 1.4 -1.2
v 3.9 1.4 -1.4
v 4 1.4 -1.4
v 3.9 1.4 -1.6
v 3.9 1.4 -1.7
v 4 1.4 -1.7
v 3.9 1.4 -1.8
v 4 1.4 -1.8
v 3.9 1.4 -1.9
v 3.9 1.4 -2.1
v 4 1.4 -2.1
v 3.9 1.4 -2.2
v 4 1.4 -2.2
v 3.8 1.5 3.5
v 3.9 1.5 3.5
v 3.9 1.5 3.4
v 3.9 1.5 3.3
v 3.8 1.5 3.2
v 3.9 1.5 3.2
v 3.8 1.5 1.9
v 3.9 1.5 1.9
v 3.8 1.5 1.6
v 3.9 1.5 1.6
v 4.5 1.5 0.6
v 4.6 1.5 0.6
v -0.6 1.5 0.5
v 0 1.5 0.5
v -0.6 1.5 -0.5
v 0 1.5 -0.5
v 4.5 1.5 -0.6
v 4.6 1.5 -0.6
v 3.8 1.5 -1.6
v 3.9 1.5 -1.6
v 3.8 1.5 -1.9
v 3.9 1.5 -1.9
v 3.8 1.5 -3.2
v 3.9 1.5 -3.2
v 3.9 1.5 -3.3
v 3.9 1.5 -3.4
v 3.8 1.5 -3.5
v 3.9 1.5 -3.5
v 2.9 1.6 3.8
v 3.3 1.6 3.8
v 3.4 1.6 3.8
v 3.6 1.6 3.8
v 2.9 1.6 3.7
v 3 1.6 3.7
v 3.3 1.6 3.7
v 3.4 1.6 3.7
v 3.6 1.6 3.7
v 2.9 1.6 3
v 3 1.6 3
v 3.3 1.6 3
v 3.4 1.6 3
v 3.6 1.6 3
v 2.5 1.6 2.9
v 2.9 1.6 2.9
v 2.5 1.6 2.7
v 3.3 1.6 2.7
v 2.5 1.6 2.6
v 3.3 1.6 2.6
v 3.5 1.6 2.1
v 3.6 1.6 2.1
v 3.4 1.6 1.8
v 3.5 1.6 1.8
v 3.4 1.6 1.7
v 3.5 1.6 1.7
v 1.6 1.6 1.5
v 1.8 1.6 1.5
v 2.1 1.6 1.4
v 2.5 1.6 1.4
v 3.5 1.6 1.4
v 3.6 1.6 1.4
v 1.4 1.6 1.3
v 1.6 1.6 1.3
v 1.8 1.6 1.3
v 1.2 1.6 1.2
v 1.4 1.6 1.2
v 1.2 1.6 1
v 1.8 1.6 1
v 2.1 1.6 1
v 3.3 1.6 1
v 3.4 1.6 1
v 3.6 1.6 1
v 1.2 1.6 -1
v 1.8 1.6 -1
v 2.1 1.6 -1
v 3.3 1.6 -1
v 3.4 1.6 -1
v 3.6 1.6 -1
v 1.2 1.6 -1.2
v 1.4 1.6 -1.2
v 1.4 1.6 -1.3
v 1.6 1.6 -1.3
v 1.8 1.6 -1.3
v 2.1 1.6 -1.4
v 2.5 1.6 -1.4
v 3.5 1.6 -1.4
v 3.6 1.6 -1.4
v 1.6 1.6 -1.5
v 1.8 1.6 -1.5
v 3.4 1.6 -1.7
v 3.5 1.6 -1.7
v 3.4 1.6 -1.8
v 3.5 1.6 -1.8
v 3.5 1.6 -2.1
v 3.6 1.6 -2.1
v 2.5 1.6 -2.6
v 3.3 1.6 -2.6
v 2.5 1.6 -2.7
v 3.3 1.6 -2.7
v 2.5 1.6 -2.9
v 2.9 1.6 -2.9
v 2.9 1.6 -3
v 3 1.6 -3
v 3.3 1.6 -3
v 3.4 1.6 -3
v 3.6 1.6 -3
v 2.9 1.6 -3.7
v 3 1.6 -3.7
v 3.3 1.6 -3.7
v 3.4 1.6 -3.7
v 3.6 1.6 -3.7
v 2.9 1.6 -3.8
v 3.3 1.6 -3.8
v 3.4 1.6 -3.8
v 3.6 1.6 -3.8
v 3 1.7 3.7
v 3.3 1.7 3.7
v 3.4 1.7 3.7
v 3.8 1.7 3.7
v 3 1.7 3
v 3.3 1.7 3
v 3.4 1.7 3
v 3.8 1.7 3
v 3.5 1.7 2.1
v 3.8 1.7 2.1
v 3.5 1.7 1.4
v 3.8 1.7 1.4
v 0 1.7 1
v 0.6 1.7 1
v 0.7 1.7 1
v 2 1.7 1
v 0 1.7 0.8
v 0.6 1.7 0.8
v 0.7 1.7 0.8
v 2 1.7 0.8
v 0 1.7 -0.8
v 0.6 1.7 -0.8
v 0.7 1.7 -0.8
v 2 1.7 -0.8
v 0 1.7 -1
v 0.6 1.7 -1
v 0.7 1.7 -1
v 2 1.7 -1
v 3.5 1.7 -1.4
v 3.8 1.7 -1.4
v 3.5 1.7 -2.1
v 3.8 1.7 -2.1
v 3 1.7 -3
v 3.3 1.7 -3
v 3.4 1.7 -3
v 3.8 1.7 -3
v 3 1.7 -3.7
v 3.3 1.7 -3.7
v 3.4 1.7 -3.7
v 3.8 1.7 -3.7
v 4 1.8 0.8
v 4.5 1.8 0.8
v 4 1.8 -0.8
v 4.5 1.8 -0.8
v 3.9 2 3.4
v 4 2 3.4
v 3.9 2 3.3
v 4 2 3.3
v 2 2 1
v 3.3 2 1
v 3.4 2 1
v 4 2 1
v 0 2 0.8
v 0.6 2 0.8
v 0.7 2 0.8
v 2 2 0.8
v 2.1 2 0.8
v 3.3 2 0.8
v 3.4 2 0.8
v 3.8 2 0.8
v 0 2 0.4
v 0.6 2 0.4
v 0.7 2 0.4
v 1.5 2 0.4
v 0 2 -0.4
v 0.6 2 -0.4
v 0.7 2 -0.4
v 1.5 2 -0.4
v 0 2 -0.8
v 0.6 2 -0.8
v 0.7 2 -0.8
v 2 2 -0.8
v 2.1 2 -0.8
v 3.3 2 -0.8
v 3.4 2 -0.8
v 3.8 2 -0.8
v 2 2 -1
v 3.3 2 -1
v 3.4 2 -1
v 4 2 -1
v 3.9 2 -3.3
v 4 2 -3.3
v 3.9 2 -3.4
v 4 2 -3.4
v 2.1 2.3 0.8
v 2.3 2.3 0.8
v 2.1 2.3 -0.8
v 2.3 2.3 -0.8
v 2.3 2.4 0.8
v 3.8 2.4 0.8
v 2.4 2.4 0.7
v 3.3 2.4 0.7
v 3.4 2.4 0.7
v 3.7 2.4 0.7
v 2.4 2.4 0.5
v 3.3 2.4 0.5
v 2.4 2.4 0.4
v 3.3 2.4 0.4
v 2.4 2.4 0.2
v 3.3 2.4 0.2
v 2.4 2.4 0.1
v 3.3 2.4 0.1
v 2.4 2.4 -0.0999999
v 3.3 2.4 -0.0999999
v 2.4 2.4 -0.2
v 3.3 2.4 -0.2
v 2.4 2.4 -0.4
v 3.3 2.4 -0.4
v 2.4 2.4 -0.5
v 3.3 2.4 -0.5
v 2.4 2.4 -0.7
v 3.3 2.4 -0.7
v 3.4 2.4 -0.7
v 3.7 2.4 -0.7
v 2.3 2.4 -0.8
v 3.8 2.4 -0.8
v 1.3 2.7 0.4
v 1.5 2.7 0.4
v 1.3 2.7 -0.4
v 1.5 2.7 -0.4
v 1.1 3.3 0.4
v 1.3 3.3 0.4
v 1.1 3.3 -0.4
v 1.3 3.3 -0.4
v 0 3.5 0.4
v 0.6 3.5 0.4
v 0.7 3.5 0.4
v 1.1 3.5 0.4
v 0.6 3.5 0.3
v 0.7 3.5 0.3
v 0.6 3.5 -0.3
v 0.7 3.5 -0.3
v 0 3.5 -0.4
v 0.6 3.5 -0.4
v 0.7 3.5 -0.4
v 1.1 3.5 -0.4

# faces
f 3/6/1 2/6/1 1/6/1
f 4/6/1 2/6/1 3/6/1
f 7/6/1 6/6/1 5/6/1
f 8/6/1 6/6/1 7/6/1
f 9/6/1 7/6/1 5/6/1
f 10/6/1 6/6/1 8/6/1
f 11/6/1 9/6/1 5/6/1
f 11/6/1 10/6/1 9/6/1
f 12/6/1 6/6/1 10/6/1
f 12/6/1 10/6/1 11/6/1
f 15/6/1 14/6/1 13/6/1
f 16/6/1 14/6/1 15/6/1
f 17/6/1 15/6/1 13/6/1
f 18/6/1 14/6/1 16/6/1
f 19/6/1 17/6/1 13/6/1
f 19/6/1 18/6/1 17/6/1
f 20/6/1 14/6/1 18/6/1
f 20/6/1 18/6/1 19/6/1
f 23/5/1 22/5/1 21/5/1
f 24/5/1 22/5/1 23/5/1
f 25/5/1 23/5/1 21/5/1
f 26/5/1 22/5/1 24/5/1
f 27/5/1 25/5/1 21/5/1
f 27/5/1 26/5/1 25/5/1
f 28/5/1 22/5/1 26/5/1
f 28/5/1 26/5/1 27/5/1
f 32/8/1 30/8/1 29/8/1
f 33/8/1 30/8/1 32/8/1
f 34/8/1 30/8/1 33/8/1
f 35/8/1 30/8/1 34/8/1
f 37/8/1 32/8/1 31/8/1
f 37/8/1 33/8/1 32/8/1
f 38/8/1 36/8/1 35/8/1
f 38/8/1 35/8/1 34/8/1
f 39/8/1 37/8/1 31/8/1
f 39/8/1 38/8/1 37/8/1
f 40/8/1 38/8/1 39/8/1
f 41/8/1 36/8/1 38/8/1
f 41/8/1 38/8/1 40/8/1
f 42/8/1 36/8/1 41/8/1
f 43/8/1 41/8/1 40/8/1
f 44/8/1 41/8/1 43/8/1
f 45/8/1 41/8/1 44/8/1
f 46/8/1 41/8/1 45/8/1
f 47/8/1 45/8/1 44/8/1
f 48/8/1 45/8/1 47/8/1
f 49/3/1 48/3/1 47/3/1
f 50/3/1 48/3/1 49/3/1
f 55/3/1 52/3/1 51/3/1
f 56/3/1 52/3/1 55/3/1
f 57/3/1 54/3/1 53/3/1
f 58/3/1 54/3/1 57/3/1
f 64/3/1 60/3/1 59/3/1
f 65/3/1 62/3/1 61/3/1
f 67/5/1 64/5/1 63/5/1
f 68/3/1 60/3/1 64/3/1
f 68/5/1 64/5/1 67/5/1
f 69/5/1 66/5/1 65/5/1
f 69/3/1 65/3/1 61/3/1
f 70/5/1 66/5/1 69/5/1
f 71/3/1 60/3/1 68/3/1
f 72/3/1 60/3/1 71/3/1
f 73/3/1 69/3/1 61/3/1
f 74/3/1 69/3/1 73/3/1
f 79/5/1 76/5/1 75/5/1
f 80/5/1 76/5/1 79/5/1
f 81/5/1 78/5/1 77/5/1
f 82/5/1 78/5/1 81/5/1
f 85/8/1 84/8/1 83/8/1
f 86/8/1 84/8/1 85/8/1
f 87/8/1 85/8/1 83/8/1
f 88/8/1 85/8/1 87/8/1
f 89/8/1 84/8/1 86/8/1
f 90/8/1 84/8/1 89/8/1
f 95/8/1 92/8/1 91/8/1
f 96/8/1 92/8/1 95/8/1
f 97/8/1 94/8/1 93/8/1
f 98/8/1 94/8/1 97/8/1
f 103/3/1 100/3/1 99/3/1
f 104/3/1 100/3/1 103/3/1
f 105/3/1 102/3/1 101/3/1
f 106/3/1 102/3/1 105/3/1
f 109/9/1 108/9/1 107/9/1
f 110/9/1 108/9/1 109/9/1
f 113/9/1 112/9/1 111/9/1
f 114/9/1 112/9/1 113/9/1
f 123/3/1 116/3/1 115/3/1
f 124/2/1 117/2/1 116/2/1
f 124/3/1 116/3/1 123/3/1
f 125/3/1 118/3/1 117/3/1
f 125/2/1 117/2/1 124/2/1
f 126/3/1 118/3/1 125/3/1
f 127/3/1 120/3/1 119/3/1
f 128/2/1 121/2/1 120/2/1
f 128/3/1 120/3/1 127/3/1
f 129/3/1 122/3/1 121/3/1
f 129/2/1 121/2/1 128/2/1
f 130/3/1 122/3/1 129/3/1
f 139/3/1 132/3/1 131/3/1
f 140/8/1 133/8/1 132/8/1
f 140/3/1 132/3/1 139/3/1
f 141/3/1 134/3/1 133/3/1
f 141/8/1 133/8/1 140/8/1
f 142/3/1 134/3/1 141/3/1
f 143/3/1 136/3/1 135/3/1
f 144/8/1 137/8/1 136/8/1
f 144/3/1 136/3/1 143/3/1
f 145/3/1 138/3/1 137/3/1
f 145/8/1 137/8/1 144/8/1
f 146/3/1 138/3/1 145/3/1
f 151/8/1 148/8/1 147/8/1
f 152/8/1 148/8/1 151/8/1
f 153/8/1 150/8/1 149/8/1
f 154/8/1 150/8/1 153/8/1
f 159/8/1 156/8/1 155/8/1
f 160/8/1 156/8/1 159/8/1
f 161/8/1 158/8/1 157/8/1
f 162/8/1 158/8/1 161/8/1
f 167/3/1 164/3/1 163/3/1
f 168/3/1 164/3/1 167/3/1
f 169/3/1 164/3/1 168/3/1
f 170/3/1 164/3/1 169/3/1
f 171/3/1 166/3/1 165/3/1
f 172/3/1 166/3/1 171/3/1
f 173/3/1 166/3/1 172/3/1
f 174/3/1 166/3/1 173/3/1
f 183/3/1 176/3/1 175/3/1
f 183/3/1 177/3/1 176/3/1
f 183/3/1 178/3/1 177/3/1
f 184/3/1 178/3/1 183/3/1
f 185/3/1 182/3/1 181/3/1
f 185/3/1 181/3/1 180/3/1
f 185/3/1 180/3/1 179/3/1
f 186/3/1 182/3/1 185/3/1
f 191/9/1 188/9/1 187/9/1
f 192/9/1 188/9/1 191/9/1
f 193/9/1 190/9/1 189/9/1
f 194/9/1 190/9/1 193/9/1
f 195/3/1 192/3/1 191/3/1
f 196/3/1 192/3/1 195/3/1
f 197/3/1 194/3/1 193/3/1
f 198/3/1 194/3/1 197/3/1
f 211/3/1 200/3/1 199/3/1
f 212/9/1 201/9/1 200/9/1
f 212/3/1 200/3/1 211/3/1
f 213/9/1 201/9/1 212/9/1
f 214/9/1 203/9/1 202/9/1
f 215/3/1 204/3/1 203/3/1
f 215/9/1 203/9/1 214/9/1
f 216/3/1 204/3/1 215/3/1
f 217/3/1 206/3/1 205/3/1
f 218/9/1 207/9/1 206/9/1
f 218/3/1 206/3/1 217/3/1
f 219/9/1 207/9/1 218/9/1
f 220/9/1 209/9/1 208/9/1
f 221/3/1 210/3/1 209/3/1
f 221/9/1 209/9/1 220/9/1
f 222/3/1 210/3/1 221/3/1
f 227/3/1 224/3/1 223/3/1
f 228/3/1 224/3/1 227/3/1
f 229/3/1 226/3/1 225/3/1
f 230/3/1 226/3/1 229/3/1
f 231/9/1 228/9/1 227/9/1
f 232/9/1 228/9/1 231/9/1
f 233/9/1 230/9/1 229/9/1
f 234/9/1 230/9/1 233/9/1
f 235/3/2 236/3/2 237/3/2
f 237/3/2 236/3/2 238/3/2
f 239/8/2 240/8/2 241/8/2
f 241/8/2 240/8/2 242/8/2
f 241/3/2 242/3/2 243/3/2
f 243/3/2 242/3/2 244/3/2
f 245/8/2 246/8/2 247/8/2
f 247/8/2 246/8/2 248/8/2
f 247/9/2 248/9/2 249/9/2
f 249/9/2 248/9/2 250/9/2
f 249/8/2 250/8/2 251/8/2
f 251/8/2 250/8/2 252/8/2
f 253/5/2 254/5/2 257/5/2
f 257/5/2 254/5/2 258/5/2
f 255/5/2 256/5/2 259/5/2
f 259/5/2 256/5/2 260/5/2
f 261/3/2 262/3/2 266/3/2
f 263/3/2 264/3/2 267/3/2
f 265/5/2 266/5/2 269/5/2
f 266/3/2 262/3/2 270/3/2
f 269/5/2 266/5/2 270/5/2
f 270/3/2 262/3/2 271/3/2
f 263/3/2 267/3/2 272/3/2
f 267/5/2 268/5/2 273/5/2
f 272/3/2 267/3/2 273/3/2
f 273/5/2 268/5/2 274/5/2
f 275/3/2 276/3/2 287/3/2
f 287/3/2 276/3/2 288/3/2
f 277/3/2 278/3/2 289/3/2
f 289/3/2 278/3/2 290/3/2
f 279/3/2 280/3/2 291/3/2
f 291/3/2 280/3/2 292/3/2
f 281/3/2 282/3/2 293/3/2
f 293/3/2 282/3/2 294/3/2
f 283/3/2 284/3/2 295/3/2
f 295/3/2 284/3/2 296/3/2
f 285/3/2 286/3/2 297/3/2
f 297/3/2 286/3/2 298/3/2
f 299/8/2 300/8/2 307/8/2
f 307/8/2 300/8/2 308/8/2
f 305/8/2 306/8/2 309/8/2
f 309/8/2 306/8/2 310/8/2
f 301/3/2 302/3/2 311/3/2
f 311/3/2 302/3/2 312/3/2
f 303/3/2 304/3/2 313/3/2
f 313/3/2 304/3/2 314/3/2
f 299/8/2 307/8/2 315/8/2
f 308/8/2 300/8/2 316/8/2
f 301/3/2 311/3/2 317/3/2
f 312/3/2 302/3/2 318/3/2
f 303/3/2 313/3/2 319/3/2
f 314/3/2 304/3/2 320/3/2
f 305/8/2 309/8/2 321/8/2
f 310/8/2 306/8/2 322/8/2
f 299/8/2 315/8/2 323/8/2
f 315/8/2 316/8/2 323/8/2
f 316/8/2 300/8/2 324/8/2
f 323/8/2 316/8/2 324/8/2
f 301/3/2 317/3/2 325/3/2
f 317/3/2 318/3/2 325/3/2
f 318/3/2 302/3/2 326/3/2
f 325/3/2 318/3/2 326/3/2
f 303/3/2 319/3/2 327/3/2
f 319/3/2 320/3/2 327/3/2
f 320/3/2 304/3/2 328/3/2
f 327/3/2 320/3/2 328/3/2
f 321/8/2 322/8/2 329/8/2
f 305/8/2 321/8/2 329/8/2
f 322/8/2 306/8/2 330/8/2
f 329/8/2 322/8/2 330/8/2
f 331/9/2 332/9/2 333/9/2
f 333/9/2 332/9/2 334/9/2
f 331/9/2 333/9/2 335/9/2
f 333/4/2 334/4/2 335/4/2
f 334/9/2 332/9/2 336/9/2
f 335/4/2 334/4/2 336/4/2
f 331/9/2 335/9/2 337/9/2
f 335/9/2 336/9/2 337/9/2
f 336/9/2 332/9/2 338/9/2
f 337/9/2 336/9/2 338/9/2
f 339/5/2 340/5/2 347/5/2
f 341/5/2 342/5/2 348/5/2
f 343/5/2 344/5/2 353/5/2
f 345/5/2 346/5/2 354/5/2
f 349/5/2 350/5/2 355/5/2
f 355/5/2 350/5/2 356/5/2
f 356/5/2 350/5/2 357/5/2
f 357/5/2 350/5/2 358/5/2
f 351/5/2 352/5/2 359/5/2
f 359/5/2 352/5/2 360/5/2
f 360/5/2 352/5/2 361/5/2
f 361/5/2 352/5/2 362/5/2
f 339/5/2 347/5/2 363/5/2
f 348/5/2 342/5/2 364/5/2
f 343/5/2 353/5/2 373/5/2
f 354/5/2 346/5/2 374/5/2
f 339/5/2 363/5/2 375/5/2
f 375/5/2 363/5/2 376/5/2
f 364/5/2 342/5/2 377/5/2
f 377/5/2 342/5/2 378/5/2
f 365/5/2 366/5/2 379/5/2
f 366/5/2 367/5/2 379/5/2
f 367/5/2 368/5/2 379/5/2
f 379/5/2 368/5/2 380/5/2
f 371/5/2 372/5/2 381/5/2
f 370/5/2 371/5/2 381/5/2
f 369/5/2 370/5/2 381/5/2
f 381/5/2 372/5/2 382/5/2
f 343/5/2 373/5/2 383/5/2
f 383/5/2 373/5/2 384/5/2
f 374/5/2 346/5/2 385/5/2
f 385/5/2 346/5/2 386/5/2
f 387/8/2 388/8/2 389/8/2
f 389/8/2 388/8/2 390/8/2
f 387/8/2 389/8/2 395/8/2
f 395/8/2 389/8/2 396/8/2
f 390/8/2 388/8/2 397/8/2
f 397/8/2 388/8/2 398/8/2
f 395/9/2 396/9/2 399/9/2
f 399/9/2 396/9/2 400/9/2
f 397/9/2 398/9/2 401/9/2
f 401/9/2 398/9/2 402/9/2
f 391/9/2 392/9/2 403/9/2
f 403/9/2 392/9/2 404/9/2
f 393/9/2 394/9/2 405/9/2
f 405/9/2 394/9/2 406/9/2
f 399/8/2 400/8/2 407/8/2
f 407/8/2 400/8/2 408/8/2
f 401/8/2 402/8/2 409/8/2
f 409/8/2 402/8/2 410/8/2
f 403/3/2 404/3/2 411/3/2
f 411/3/2 404/3/2 412/3/2
f 407/9/2 408/9/2 413/9/2
f 413/9/2 408/9/2 414/9/2
f 409/9/2 410/9/2 415/9/2
f 415/9/2 410/9/2 416/9/2
f 405/3/2 406/3/2 417/3/2
f 417/3/2 406/3/2 418/3/2
f 411/5/2 412/5/2 431/5/2
f 431/5/2 412/5/2 432/5/2
f 419/3/2 420/3/2 433/3/2
f 420/9/2 421/9/2 434/9/2
f 433/3/2 420/3/2 434/3/2
f 421/5/2 422/5/2 435/5/2
f 434/9/2 421/9/2 435/9/2
f 422/9/2 423/9/2 436/9/2
f 435/5/2 422/5/2 436/5/2
f 423/3/2 424/3/2 437/3/2
f 436/9/2 423/9/2 437/9/2
f 437/3/2 424/3/2 438/3/2
f 425/3/2 426/3/2 439/3/2
f 426/9/2 427/9/2 440/9/2
f 439/3/2 426/3/2 440/3/2
f 427/5/2 428/5/2 441/5/2
f 440/9/2 427/9/2 441/9/2
f 428/9/2 429/9/2 442/9/2
f 441/5/2 428/5/2 442/5/2
f 429/3/2 430/3/2 443/3/2
f 442/9/2 429/9/2 443/9/2
f 443/3/2 430/3/2 444/3/2
f 417/5/2 418/5/2 445/5/2
f 445/5/2 418/5/2 446/5/2
f 431/3/2 432/3/2 447/3/2
f 447/3/2 432/3/2 448/3/2
f 445/3/2 446/3/2 449/3/2
f 449/3/2 446/3/2 450/3/2
f 413/8/2 414/8/2 451/8/2
f 415/8/2 416/8/2 452/8/2
f 447/9/2 448/9/2 453/9/2
f 453/9/2 448/9/2 454/9/2
f 413/8/2 451/8/2 455/8/2
f 451/8/2 452/8/2 455/8/2
f 452/8/2 416/8/2 456/8/2
f 455/8/2 452/8/2 456/8/2
f 449/9/2 450/9/2 457/9/2
f 457/9/2 450/9/2 458/9/2
f 459/8/2 460/8/2 461/8/2
f 461/8/2 460/8/2 462/8/2
f 461/9/2 462/9/2 463/9/2
f 463/9/2 462/9/2 464/9/2
f 464/9/2 462/9/2 465/9/2
f 465/9/2 462/9/2 466/9/2
f 461/9/2 463/9/2 467/9/2
f 466/9/2 462/9/2 468/9/2
f 461/9/2 467/9/2 469/9/2
f 468/9/2 462/9/2 470/9/2
f 461/9/2 469/9/2 471/9/2
f 470/9/2 462/9/2 472/9/2
f 459/8/2 461/8/2 473/8/2
f 471/9/2 472/9/2 473/9/2
f 461/9/2 471/9/2 473/9/2
f 472/9/2 462/9/2 474/9/2
f 473/9/2 472/9/2 474/9/2
f 462/8/2 460/8/2 474/8/2
f 459/8/2 473/8/2 475/8/2
f 473/8/2 474/8/2 475/8/2
f 474/8/2 460/8/2 476/8/2
f 475/8/2 474/8/2 476/8/2
f 477/4/2 478/4/2 481/4/2
f 478/9/2 479/9/2 482/9/2
f 481/4/2 478/4/2 482/4/2
f 479/4/2 480/4/2 483/4/2
f 482/9/2 479/9/2 483/9/2
f 483/4/2 480/4/2 484/4/2
f 481/9/2 482/9/2 485/9/2
f 482/9/2 483/9/2 485/9/2
f 483/9/2 484/9/2 485/9/2
f 485/9/2 484/9/2 486/9/2
f 485/4/2 486/4/2 487/4/2
f 487/4/2 486/4/2 488/4/2
f 491/3/3 490/3/3 489/3/3
f 492/3/3 490/3/3 491/3/3
f 493/2/3 492/2/3 491/2/3
f 494/2/3 492/2/3 493/2/3
f 495/3/3 494/3/3 493/3/3
f 496/3/3 494/3/3 495/3/3
f 501/8/3 498/8/3 497/8/3
f 502/8/3 498/8/3 501/8/3
f 503/8/3 500/8/3 499/8/3
f 504/8/3 500/8/3 503/8/3
f 505/9/3 502/9/3 501/9/3
f 506/9/3 502/9/3 505/9/3
f 507/9/3 504/9/3 503/9/3
f 508/9/3 504/9/3 507/9/3
f 509/8/3 506/8/3 505/8/3
f 510/8/3 508/8/3 507/8/3
f 511/8/3 509/8/3 505/8/3
f 511/3/3 510/3/3 509/3/3
f 512/8/3 508/8/3 510/8/3
f 512/3/3 510/3/3 511/3/3
f 513/8/3 511/8/3 505/8/3
f 513/8/3 512/8/3 511/8/3
f 514/8/3 508/8/3 512/8/3
f 514/8/3 512/8/3 513/8/3
f 517/5/3 516/5/3 515/5/3
f 518/5/3 516/5/3 517/5/3
f 527/9/3 520/9/3 519/9/3
f 528/3/3 521/3/3 520/3/3
f 528/9/3 520/9/3 527/9/3
f 528/3/3 522/3/3 521/3/3
f 529/5/3 523/5/3 522/5/3
f 529/3/3 522/3/3 528/3/3
f 530/3/3 525/3/3 524/3/3
f 530/5/3 523/5/3 529/5/3
f 530/3/3 524/3/3 523/3/3
f 531/9/3 526/9/3 525/9/3
f 531/3/3 525/3/3 530/3/3
f 532/9/3 526/9/3 531/9/3
f 535/3/3 534/3/3 533/3/3
f 536/3/3 534/3/3 535/3/3
f 539/3/3 538/3/3 537/3/3
f 540/3/3 538/3/3 539/3/3
f 545/3/3 542/3/3 541/3/3
f 546/3/3 544/3/3 543/3/3
f 547/3/3 545/3/3 541/3/3
f 547/3/3 546/3/3 545/3/3
f 548/3/3 544/3/3 546/3/3
f 548/3/3 546/3/3 547/3/3
f 551/5/3 550/5/3 549/5/3
f 552/5/3 550/5/3 551/5/3
f 553/5/3 550/5/3 552/5/3
f 554/5/3 550/5/3 553/5/3
f 557/5/3 556/5/3 555/5/3
f 558/5/3 556/5/3 557/5/3
f 561/5/3 560/5/3 559/5/3
f 562/5/3 560/5/3 561/5/3
f 565/3/3 564/3/3 563/3/3
f 566/3/3 564/3/3 565/3/3
f 571/3/3 568/3/3 567/3/3
f 572/3/3 570/3/3 569/3/3
f 573/3/3 570/3/3 572/3/3
f 574/3/3 570/3/3 573/3/3
f 575/3/3 571/3/3 567/3/3
f 575/3/3 572/3/3 571/3/3
f 575/3/3 573/3/3 572/3/3
f 576/3/3 573/3/3 575/3/3
f 579/3/3 578/3/3 577/3/3
f 580/3/3 578/3/3 579/3/3
f 583/8/3 582/8/3 581/8/3
f 584/8/3 582/8/3 583/8/3
f 585/9/3 584/9/3 583/9/3
f 586/9/3 584/9/3 585/9/3
f 587/8/3 586/8/3 585/8/3
f 588/8/3 586/8/3 587/8/3
f 589/8/3 587/8/3 585/8/3
f 590/8/3 586/8/3 588/8/3
f 592/8/3 589/8/3 585/8/3
f 592/8/3 590/8/3 589/8/3
f 593/8/3 586/8/3 590/8/3
f 593/8/3 590/8/3 592/8/3
f 595/8/3 593/8/3 592/8/3
f 595/8/3 594/8/3 593/8/3
f 595/8/3 592/8/3 591/8/3
f 596/8/3 594/8/3 595/8/3
f 597/8/3 595/8/3 591/8/3
f 598/8/3 595/8/3 597/8/3
f 599/8/3 594/8/3 596/8/3
f 600/8/3 594/8/3 599/8/3
f 601/9/3 598/9/3 597/9/3
f 602/9/3 598/9/3 601/9/3
f 603/9/3 600/9/3 599/9/3
f 604/9/3 600/9/3 603/9/3
f 605/8/3 602/8/3 601/8/3
f 606/8/3 604/8/3 603/8/3
f 607/8/3 605/8/3 601/8/3
f 607/8/3 606/8/3 605/8/3
f 608/8/3 606/8/3 607/8/3
f 609/9/3 608/9/3 607/9/3
f 610/9/3 608/9/3 609/9/3
f 611/8/3 607/8/3 601/8/3
f 612/9/3 609/9/3 607/9/3
f 612/8/3 607/8/3 611/8/3
f 613/8/3 610/8/3 609/8/3
f 613/9/3 609/9/3 612/9/3
f 614/9/3 608/9/3 610/9/3
f 614/8/3 610/8/3 613/8/3
f 615/8/3 606/8/3 608/8/3
f 615/9/3 608/9/3 614/9/3
f 616/8/3 604/8/3 606/8/3
f 616/8/3 606/8/3 615/8/3
f 621/8/3 618/8/3 617/8/3
f 622/8/3 618/8/3 621/8/3
f 623/8/3 620/8/3 619/8/3
f 624/8/3 620/8/3 623/8/3
f 625/9/3 622/9/3 621/9/3
f 626/9/3 622/9/3 625/9/3
f 627/9/3 624/9/3 623/9/3
f 628/9/3 624/9/3 627/9/3
f 629/8/3 626/8/3 625/8/3
f 630/8/3 626/8/3 629/8/3
f 631/8/3 628/8/3 627/8/3
f 632/8/3 628/8/3 631/8/3
f 635/9/3 634/9/3 633/9/3
f 636/9/3 634/9/3 635/9/3
f 637/9/3 634/9/3 636/9/3
f 639/4/3 636/4/3 635/4/3
f 639/9/3 638/9/3 637/9/3
f 639/9/3 637/9/3 636/9/3
f 640/9/3 638/9/3 639/9/3
f 641/9/3 635/9/3 633/9/3
f 642/4/3 639/4/3 635/4/3
f 642/9/3 635/9/3 641/9/3
f 642/4/3 640/4/3 639/4/3
f 643/9/3 638/9/3 640/9/3
f 643/4/3 640/4/3 642/4/3
f 644/9/3 642/9/3 641/9/3
f 644/9/3 643/9/3 642/9/3
f 645/9/3 643/9/3 644/9/3
f 646/9/3 638/9/3 643/9/3
f 646/9/3 643/9/3 645/9/3
f 647/9/3 645/9/3 644/9/3
f 647/4/3 646/4/3 645/4/3
f 648/9/3 638/9/3 646/9/3
f 648/4/3 646/4/3 647/4/3
f 649/9/3 647/9/3 644/9/3
f 649/9/3 648/9/3 647/9/3
f 650/9/3 638/9/3 648/9/3
f 650/9/3 648/9/3 649/9/3
f 657/9/3 653/9/3 652/9/3
f 657/8/3 654/8/3 653/8/3
f 658/9/3 655/9/3 654/9/3
f 658/8/3 654/8/3 657/8/3
f 659/8/3 652/8/3 651/8/3
f 659/9/3 657/9/3 652/9/3
f 659/9/3 658/9/3 657/9/3
f 660/9/3 655/9/3 658/9/3
f 660/9/3 658/9/3 659/9/3
f 660/8/3 656/8/3 655/8/3
f 661/8/3 659/8/3 651/8/3
f 661/8/3 660/8/3 659/8/3
f 662/8/3 656/8/3 660/8/3
f 662/8/3 660/8/3 661/8/3
f 667/4/3 664/4/3 663/4/3
f 668/9/3 665/9/3 664/9/3
f 668/4/3 664/4/3 667/4/3
f 669/4/3 666/4/3 665/4/3
f 669/9/3 665/9/3 668/9/3
f 670/4/3 666/4/3 669/4/3
f 673/5/3 672/5/3 671/5/3
f 674/5/3 672/5/3 673/5/3
f 677/6/3 676/6/3 675/6/3
f 678/6/3 676/6/3 677/6/3
f 682/8/3 680/8/3 679/8/3
f 683/3/3 681/3/3 680/3/3
f 683/8/3 680/8/3 682/8/3
f 684/3/3 681/3/3 683/3/3
f 685/9/3 683/9/3 682/9/3
f 686/9/3 683/9/3 685/9/3
f 687/9/3 683/9/3 686/9/3
f 688/2/3 684/2/3 683/2/3
f 688/9/3 683/9/3 687/9/3
f 689/2/3 684/2/3 688/2/3
f 690/3/3 689/3/3 688/3/3
f 691/3/3 689/3/3 690/3/3
f 692/8/3 688/8/3 687/8/3
f 693/3/3 690/3/3 688/3/3
f 693/8/3 688/8/3 692/8/3
f 694/3/3 690/3/3 693/3/3
f 695/8/3 686/8/3 685/8/3
f 696/9/3 687/9/3 686/9/3
f 696/8/3 686/8/3 695/8/3
f 697/8/3 692/8/3 687/8/3
f 697/9/3 687/9/3 696/9/3
f 698/8/3 692/8/3 697/8/3
f 701/6/3 700/6/3 699/6/3
f 702/6/3 700/6/3 701/6/3
f 705/6/3 704/6/3 703/6/3
f 706/6/3 704/6/3 705/6/3
f 709/3/3 708/3/3 707/3/3
f 710/3/3 708/3/3 709/3/3
f 715/3/3 712/3/3 711/3/3
f 716/3/3 714/3/3 713/3/3
f 717/3/3 715/3/3 711/3/3
f 717/3/3 716/3/3 715/3/3
f 718/3/3 714/3/3 716/3/3
f 718/3/3 716/3/3 717/3/3
f 721/5/3 720/5/3 719/5/3
f 722/5/3 720/5/3 721/5/3
f 723/5/3 720/5/3 722/5/3
f 724/5/3 720/5/3 723/5/3
f 729/8/3 726/8/3 725/8/3
f 730/8/3 726/8/3 729/8/3
f 731/8/3 728/8/3 727/8/3
f 732/8/3 728/8/3 731/8/3
f 733/9/3 730/9/3 729/9/3
f 734/9/3 730/9/3 733/9/3
f 735/9/3 732/9/3 731/9/3
f 736/9/3 732/9/3 735/9/3
f 737/8/3 734/8/3 733/8/3
f 738/8/3 736/8/3 735/8/3
f 739/8/3 737/8/3 733/8/3
f 739/3/3 738/3/3 737/3/3
f 740/8/3 736/8/3 738/8/3
f 740/3/3 738/3/3 739/3/3
f 741/8/3 739/8/3 733/8/3
f 741/8/3 740/8/3 739/8/3
f 742/8/3 736/8/3 740/8/3
f 742/8/3 740/8/3 741/8/3
f 745/5/3 744/5/3 743/5/3
f 746/5/3 744/5/3 745/5/3
f 755/9/3 748/9/3 747/9/3
f 756/3/3 749/3/3 748/3/3
f 756/9/3 748/9/3 755/9/3
f 756/3/3 750/3/3 749/3/3
f 757/5/3 751/5/3 750/5/3
f 757/3/3 750/3/3 756/3/3
f 758/3/3 753/3/3 752/3/3
f 758/5/3 751/5/3 757/5/3
f 758/3/3 752/3/3 751/3/3
f 759/9/3 754/9/3 753/9/3
f 759/3/3 753/3/3 758/3/3
f 760/9/3 754/9/3 759/9/3
f 761/9/4 762/9/4 769/9/4
f 762/3/4 763/3/4 770/3/4
f 769/9/4 762/9/4 770/9/4
f 763/3/4 764/3/4 770/3/4
f 764/5/4 765/5/4 771/5/4
f 770/3/4 764/3/4 771/3/4
f 766/3/4 767/3/4 772/3/4
f 771/5/4 765/5/4 772/5/4
f 765/3/4 766/3/4 772/3/4
f 767/9/4 768/9/4 773/9/4
f 772/3/4 767/3/4 773/3/4
f 773/9/4 768/9/4 774/9/4
f 775/5/4 776/5/4 777/5/4
f 777/5/4 776/5/4 778/5/4
f 779/8/4 780/8/4 783/8/4
f 783/8/4 780/8/4 784/8/4
f 781/8/4 782/8/4 785/8/4
f 785/8/4 782/8/4 786/8/4
f 783/9/4 784/9/4 787/9/4
f 787/9/4 784/9/4 788/9/4
f 785/9/4 786/9/4 789/9/4
f 789/9/4 786/9/4 790/9/4
f 787/8/4 788/8/4 791/8/4
f 789/8/4 790/8/4 792/8/4
f 787/8/4 791/8/4 793/8/4
f 791/3/4 792/3/4 793/3/4
f 792/8/4 790/8/4 794/8/4
f 793/3/4 792/3/4 794/3/4
f 787/8/4 793/8/4 795/8/4
f 793/8/4 794/8/4 795/8/4
f 794/8/4 790/8/4 796/8/4
f 795/8/4 794/8/4 796/8/4
f 797/5/4 798/5/4 799/5/4
f 799/5/4 798/5/4 800/5/4
f 800/5/4 798/5/4 801/5/4
f 801/5/4 798/5/4 802/5/4
f 803/3/4 804/3/4 807/3/4
f 805/3/4 806/3/4 808/3/4
f 803/3/4 807/3/4 809/3/4
f 807/3/4 808/3/4 809/3/4
f 808/3/4 806/3/4 810/3/4
f 809/3/4 808/3/4 810/3/4
f 811/3/4 812/3/4 813/3/4
f 813/3/4 812/3/4 814/3/4
f 815/6/4 816/6/4 817/6/4
f 817/6/4 816/6/4 818/6/4
f 819/6/4 820/6/4 821/6/4
f 821/6/4 820/6/4 822/6/4
f 823/6/4 824/6/4 825/6/4
f 825/6/4 824/6/4 826/6/4
f 827/8/4 828/8/4 830/8/4
f 828/3/4 829/3/4 831/3/4
f 830/8/4 828/8/4 831/8/4
f 831/3/4 829/3/4 832/3/4
f 830/9/4 831/9/4 833/9/4
f 833/9/4 831/9/4 834/9/4
f 834/9/4 831/9/4 835/9/4
f 831/2/4 832/2/4 836/2/4
f 835/9/4 831/9/4 836/9/4
f 836/2/4 832/2/4 837/2/4
f 836/3/4 837/3/4 838/3/4
f 838/3/4 837/3/4 839/3/4
f 835/8/4 836/8/4 840/8/4
f 836/3/4 838/3/4 841/3/4
f 840/8/4 836/8/4 841/8/4
f 841/3/4 838/3/4 842/3/4
f 833/8/4 834/8/4 843/8/4
f 834/9/4 835/9/4 844/9/4
f 843/8/4 834/8/4 844/8/4
f 835/8/4 840/8/4 845/8/4
f 844/9/4 835/9/4 845/9/4
f 845/8/4 840/8/4 846/8/4
f 847/5/4 848/5/4 849/5/4
f 849/5/4 848/5/4 850/5/4
f 851/4/4 852/4/4 855/4/4
f 852/9/4 853/9/4 856/9/4
f 855/4/4 852/4/4 856/4/4
f 853/4/4 854/4/4 857/4/4
f 856/9/4 853/9/4 857/9/4
f 857/4/4 854/4/4 858/4/4
f 859/8/4 860/8/4 863/8/4
f 863/8/4 860/8/4 864/8/4
f 861/8/4 862/8/4 865/8/4
f 865/8/4 862/8/4 866/8/4
f 863/9/4 864/9/4 867/9/4
f 867/9/4 864/9/4 868/9/4
f 865/9/4 866/9/4 869/9/4
f 869/9/4 866/9/4 870/9/4
f 867/8/4 868/8/4 871/8/4
f 871/8/4 868/8/4 872/8/4
f 869/8/4 870/8/4 873/8/4
f 873/8/4 870/8/4 874/8/4
f 875/9/4 876/9/4 877/9/4
f 877/9/4 876/9/4 878/9/4
f 878/9/4 876/9/4 879/9/4
f 877/4/4 878/4/4 881/4/4
f 879/9/4 880/9/4 881/9/4
f 878/9/4 879/9/4 881/9/4
f 881/9/4 880/9/4 882/9/4
f 875/9/4 877/9/4 883/9/4
f 877/4/4 881/4/4 884/4/4
f 883/9/4 877/9/4 884/9/4
f 881/4/4 882/4/4 884/4/4
f 882/9/4 880/9/4 885/9/4
f 884/4/4 882/4/4 885/4/4
f 883/9/4 884/9/4 886/9/4
f 884/9/4 885/9/4 886/9/4
f 886/9/4 885/9/4 887/9/4
f 885/9/4 880/9/4 888/9/4
f 887/9/4 885/9/4 888/9/4
f 886/9/4 887/9/4 889/9/4
f 887/4/4 888/4/4 889/4/4
f 888/9/4 880/9/4 890/9/4
f 889/4/4 888/4/4 890/4/4
f 886/9/4 889/9/4 891/9/4
f 889/9/4 890/9/4 891/9/4
f 890/9/4 880/9/4 892/9/4
f 891/9/4 890/9/4 892/9/4
f 894/9/4 895/9/4 899/9/4
f 895/8/4 896/8/4 899/8/4
f 896/9/4 897/9/4 900/9/4
f 899/8/4 896/8/4 900/8/4
f 893/8/4 894/8/4 901/8/4
f 894/9/4 899/9/4 901/9/4
f 899/9/4 900/9/4 901/9/4
f 900/9/4 897/9/4 902/9/4
f 901/9/4 900/9/4 902/9/4
f 897/8/4 898/8/4 902/8/4
f 893/8/4 901/8/4 903/8/4
f 901/8/4 902/8/4 903/8/4
f 902/8/4 898/8/4 904/8/4
f 903/8/4 902/8/4 904/8/4
f 905/8/4 906/8/4 907/8/4
f 907/8/4 906/8/4 908/8/4
f 907/9/4 908/9/4 909/9/4
f 909/9/4 908/9/4 910/9/4
f 909/8/4 910/8/4 911/8/4
f 911/8/4 910/8/4 912/8/4
f 909/8/4 911/8/4 913/8/4
f 912/8/4 910/8/4 914/8/4
f 909/8/4 913/8/4 916/8/4
f 913/8/4 914/8/4 916/8/4
f 914/8/4 910/8/4 917/8/4
f 916/8/4 914/8/4 917/8/4
f 916/8/4 917/8/4 919/8/4
f 917/8/4 918/8/4 919/8/4
f 915/8/4 916/8/4 919/8/4
f 919/8/4 918/8/4 920/8/4
f 915/8/4 919/8/4 921/8/4
f 921/8/4 919/8/4 922/8/4
f 920/8/4 918/8/4 923/8/4
f 923/8/4 918/8/4 924/8/4
f 921/9/4 922/9/4 925/9/4
f 925/9/4 922/9/4 926/9/4
f 923/9/4 924/9/4 927/9/4
f 927/9/4 924/9/4 928/9/4
f 925/8/4 926/8/4 929/8/4
f 927/8/4 928/8/4 930/8/4
f 925/8/4 929/8/4 931/8/4
f 929/8/4 930/8/4 931/8/4
f 931/8/4 930/8/4 932/8/4
f 931/9/4 932/9/4 933/9/4
f 933/9/4 932/9/4 934/9/4
f 925/8/4 931/8/4 935/8/4
f 931/9/4 933/9/4 936/9/4
f 935/8/4 931/8/4 936/8/4
f 933/8/4 934/8/4 937/8/4
f 936/9/4 933/9/4 937/9/4
f 934/9/4 932/9/4 938/9/4
f 937/8/4 934/8/4 938/8/4
f 932/8/4 930/8/4 939/8/4
f 938/9/4 932/9/4 939/9/4
f 930/8/4 928/8/4 940/8/4
f 939/8/4 930/8/4 940/8/4
f 941/3/4 942/3/4 943/3/4
f 943/3/4 942/3/4 944/3/4
f 945/3/4 946/3/4 949/3/4
f 947/3/4 948/3/4 950/3/4
f 950/3/4 948/3/4 951/3/4
f 951/3/4 948/3/4 952/3/4
f 945/3/4 949/3/4 953/3/4
f 949/3/4 950/3/4 953/3/4
f 950/3/4 951/3/4 953/3/4
f 953/3/4 951/3/4 954/3/4
f 955/5/4 956/5/4 957/5/4
f 957/5/4 956/5/4 958/5/4
f 959/3/4 960/3/4 961/3/4
f 961/3/4 960/3/4 962/3/4
f 963/5/4 964/5/4 965/5/4
f 965/5/4 964/5/4 966/5/4
f 967/5/4 968/5/4 969/5/4
f 969/5/4 968/5/4 970/5/4
f 970/5/4 968/5/4 971/5/4
f 971/5/4 968/5/4 972/5/4
f 973/3/4 974/3/4 977/3/4
f 975/3/4 976/3/4 978/3/4
f 973/3/4 977/3/4 979/3/4
f 977/3/4 978/3/4 979/3/4
f 978/3/4 976/3/4 980/3/4
f 979/3/4 978/3/4 980/3/4
f 981/3/4 982/3/4 983/3/4
f 983/3/4 982/3/4 984/3/4
f 985/3/4 986/3/4 987/3/4
f 987/3/4 986/3/4 988/3/4
f 989/9/4 990/9/4 997/9/4
f 990/3/4 991/3/4 998/3/4
f 997/9/4 990/9/4 998/9/4
f 991/3/4 992/3/4 998/3/4
f 992/5/4 993/5/4 999/5/4
f 998/3/4 992/3/4 999/3/4
f 994/3/4 995/3/4 1000/3/4
f 999/5/4 993/5/4 1000/5/4
f 993/3/4 994/3/4 1000/3/4
f 995/9/4 996/9/4 1001/9/4
f 1000/3/4 995/3/4 1001/3/4
f 1001/9/4 996/9/4 1002/9/4
f 1003/5/4 1004/5/4 1005/5/4
f 1005/5/4 1004/5/4 1006/5/4
f 1007/8/4 1008/8/4 1011/8/4
f 1011/8/4 1008/8/4 1012/8/4
f 1009/8/4 1010/8/4 1013/8/4
f 1013/8/4 1010/8/4 1014/8/4
f 1011/9/4 1012/9/4 1015/9/4
f 1015/9/4 1012/9/4 1016/9/4
f 1013/9/4 1014/9/4 1017/9/4
f 1017/9/4 1014/9/4 1018/9/4
f 1015/8/4 1016/8/4 1019/8/4
f 1017/8/4 1018/8/4 1020/8/4
f 1015/8/4 1019/8/4 1021/8/4
f 1019/3/4 1020/3/4 1021/3/4
f 1020/8/4 1018/8/4 1022/8/4
f 1021/3/4 1020/3/4 1022/3/4
f 1015/8/4 1021/8/4 1023/8/4
f 1021/8/4 1022/8/4 1023/8/4
f 1022/8/4 1018/8/4 1024/8/4
f 1023/8/4 1022/8/4 1024/8/4
f 1025/3/4 1026/3/4 1027/3/4
f 1027/3/4 1026/3/4 1028/3/4
f 1027/2/4 1028/2/4 1029/2/4
f 1029/2/4 1028/2/4 1030/2/4
f 1029/3/4 1030/3/4 1031/3/4
f 1031/3/4 1030/3/4 1032/3/4
f 1037/8/5 1034/8/5 1033/8/5
f 1038/9/5 1035/9/5 1034/9/5
f 1038/8/5 1034/8/5 1037/8/5
f 1039/8/5 1036/8/5 1035/8/5
f 1039/9/5 1035/9/5 1038/9/5
f 1040/8/5 1036/8/5 1039/8/5
f 1047/8/5 1042/8/5 1041/8/5
f 1048/9/5 1043/9/5 1042/9/5
f 1048/8/5 1042/8/5 1047/8/5
f 1049/8/5 1044/8/5 1043/8/5
f 1049/9/5 1043/9/5 1048/9/5
f 1050/8/5 1044/8/5 1049/8/5
f 1051/8/5 1046/8/5 1045/8/5
f 1052/8/5 1046/8/5 1051/8/5
f 1055/4/5 1054/4/5 1053/4/5
f 1056/4/5 1054/4/5 1055/4/5
f 1057/9/5 1056/9/5 1055/9/5
f 1058/9/5 1056/9/5 1057/9/5
f 1059/4/5 1058/4/5 1057/4/5
f 1060/4/5 1058/4/5 1059/4/5
f 1065/8/5 1062/8/5 1061/8/5
f 1066/9/5 1063/9/5 1062/9/5
f 1066/8/5 1062/8/5 1065/8/5
f 1067/8/5 1064/8/5 1063/8/5
f 1067/9/5 1063/9/5 1066/9/5
f 1068/8/5 1064/8/5 1067/8/5
f 1071/5/5 1070/5/5 1069/5/5
f 1072/5/5 1070/5/5 1071/5/5
f 1077/8/5 1074/8/5 1073/8/5
f 1078/9/5 1075/9/5 1074/9/5
f 1078/8/5 1074/8/5 1077/8/5
f 1079/8/5 1076/8/5 1075/8/5
f 1079/9/5 1075/9/5 1078/9/5
f 1080/8/5 1076/8/5 1079/8/5
f 1083/9/5 1082/9/5 1081/9/5
f 1084/9/5 1082/9/5 1083/9/5
f 1087/6/5 1086/6/5 1085/6/5
f 1088/6/5 1086/6/5 1087/6/5
f 1091/9/5 1090/9/5 1089/9/5
f 1092/9/5 1090/9/5 1091/9/5
f 1095/6/5 1094/6/5 1093/6/5
f 1096/6/5 1094/6/5 1095/6/5
f 1099/6/5 1098/6/5 1097/6/5
f 1100/6/5 1098/6/5 1099/6/5
f 1105/8/5 1102/8/5 1101/8/5
f 1106/9/5 1103/9/5 1102/9/5
f 1106/8/5 1102/8/5 1105/8/5
f 1107/8/5 1104/8/5 1103/8/5
f 1107/9/5 1103/9/5 1106/9/5
f 1108/8/5 1104/8/5 1107/8/5
f 1111/3/5 1110/3/5 1109/3/5
f 1112/3/5 1110/3/5 1111/3/5
f 1115/3/5 1114/3/5 1113/3/5
f 1116/3/5 1114/3/5 1115/3/5
f 1121/8/5 1118/8/5 1117/8/5
f 1122/9/5 1119/9/5 1118/9/5
f 1122/8/5 1118/8/5 1121/8/5
f 1123/8/5 1120/8/5 1119/8/5
f 1123/9/5 1119/9/5 1122/9/5
f 1124/8/5 1120/8/5 1123/8/5
f 1129/3/5 1126/3/5 1125/3/5
f 1130/3/5 1126/3/5 1129/3/5
f 1131/2/5 1127/2/5 1126/2/5
f 1131/3/5 1126/3/5 1130/3/5
f 1132/3/5 1128/3/5 1127/3/5
f 1132/2/5 1127/2/5 1131/2/5
f 1133/3/5 1128/3/5 1132/3/5
f 1134/8/5 1130/8/5 1129/8/5
f 1135/8/5 1130/8/5 1134/8/5
f 1140/3/5 1135/3/5 1134/3/5
f 1140/3/5 1136/3/5 1135/3/5
f 1141/3/5 1140/3/5 1139/3/5
f 1142/2/5 1137/2/5 1136/2/5
f 1142/3/5 1140/3/5 1141/3/5
f 1142/3/5 1136/3/5 1140/3/5
f 1143/2/5 1142/2/5 1141/2/5
f 1144/2/5 1137/2/5 1142/2/5
f 1144/2/5 1142/2/5 1143/2/5
f 1145/3/5 1138/3/5 1137/3/5
f 1146/3/5 1138/3/5 1145/3/5
f 1147/2/5 1137/2/5 1144/2/5
f 1147/3/5 1145/3/5 1137/3/5
f 1148/3/5 1145/3/5 1147/3/5
f 1149/2/5 1147/2/5 1144/2/5
f 1149/2/5 1148/2/5 1147/2/5
f 1150/2/5 1148/2/5 1149/2/5
f 1152/3/5 1144/3/5 1143/3/5
f 1153/3/5 1150/3/5 1149/3/5
f 1158/3/5 1156/3/5 1155/3/5
f 1159/3/5 1158/3/5 1157/3/5
f 1160/3/5 1156/3/5 1158/3/5
f 1160/3/5 1158/3/5 1159/3/5
f 1161/3/5 1152/3/5 1151/3/5
f 1162/3/5 1144/3/5 1152/3/5
f 1162/3/5 1152/3/5 1161/3/5
f 1162/2/5 1149/2/5 1144/2/5
f 1163/3/5 1153/3/5 1149/3/5
f 1163/2/5 1149/2/5 1162/2/5
f 1163/3/5 1154/3/5 1153/3/5
f 1164/3/5 1154/3/5 1163/3/5
f 1171/3/5 1166/3/5 1165/3/5
f 1172/3/5 1166/3/5 1171/3/5
f 1173/3/5 1166/3/5 1172/3/5
f 1174/3/5 1166/3/5 1173/3/5
f 1175/3/5 1168/3/5 1167/3/5
f 1176/3/5 1168/3/5 1175/3/5
f 1177/3/5 1170/3/5 1169/3/5
f 1178/3/5 1170/3/5 1177/3/5
f 1179/2/5 1169/2/5 1168/2/5
f 1179/3/5 1177/3/5 1169/3/5
f 1180/3/5 1177/3/5 1179/3/5
f 1181/2/5 1179/2/5 1168/2/5
f 1181/2/5 1180/2/5 1179/2/5
f 1182/2/5 1180/2/5 1181/2/5
f 1183/3/5 1182/3/5 1181/3/5
f 1185/3/5 1168/3/5 1176/3/5
f 1186/2/5 1181/2/5 1168/2/5
f 1186/3/5 1168/3/5 1185/3/5
f 1187/2/5 1186/2/5 1185/2/5
f 1188/2/5 1181/2/5 1186/2/5
f 1188/2/5 1186/2/5 1187/2/5
f 1189/3/5 1188/3/5 1187/3/5
f 1190/3/5 1188/3/5 1189/3/5
f 1191/3/5 1188/3/5 1190/3/5
f 1192/3/5 1188/3/5 1191/3/5
f 1193/2/5 1181/2/5 1188/2/5
f 1193/3/5 1188/3/5 1192/3/5
f 1194/3/5 1184/3/5 1183/3/5
f 1194/2/5 1181/2/5 1193/2/5
f 1194/3/5 1183/3/5 1181/3/5
f 1195/3/5 1184/3/5 1194/3/5
f 1196/8/5 1192/8/5 1191/8/5
f 1197/8/5 1192/8/5 1196/8/5
f 1201/3/5 1197/3/5 1196/3/5
f 1201/3/5 1198/3/5 1197/3/5
f 1202/2/5 1199/2/5 1198/2/5
f 1202/3/5 1198/3/5 1201/3/5
f 1203/3/5 1200/3/5 1199/3/5
f 1203/2/5 1199/2/5 1202/2/5
f 1204/3/5 1200/3/5 1203/3/5
f 1207/5/5 1206/5/5 1205/5/5
f 1208/5/5 1207/5/5 1205/5/5
f 1209/5/5 1208/5/5 1205/5/5
f 1210/5/5 1208/5/5 1209/5/5
f 1213/5/5 1212/5/5 1211/5/5
f 1214/5/5 1212/5/5 1213/5/5
f 1217/5/5 1216/5/5 1215/5/5
f 1218/5/5 1216/5/5 1217/5/5
f 1221/5/5 1220/5/5 1219/5/5
f 1222/5/5 1221/5/5 1219/5/5
f 1223/5/5 1222/5/5 1219/5/5
f 1224/5/5 1222/5/5 1223/5/5
f 1227/5/5 1226/5/5 1225/5/5
f 1228/5/5 1226/5/5 1227/5/5
f 1231/5/5 1230/5/5 1229/5/5
f 1232/5/5 1230/5/5 1231/5/5
f 1235/3/5 1234/3/5 1233/3/5
f 1236/3/5 1234/3/5 1235/3/5
f 1237/9/5 1236/9/5 1235/9/5
f 1238/9/5 1236/9/5 1237/9/5
f 1239/9/5 1236/9/5 1238/9/5
f 1240/5/5 1239/5/5 1238/5/5
f 1241/5/5 1239/5/5 1240/5/5
f 1242/9/5 1241/9/5 1240/9/5
f 1243/9/5 1241/9/5 1242/9/5
f 1244/9/5 1241/9/5 1243/9/5
f 1245/3/5 1244/3/5 1243/3/5
f 1246/3/5 1244/3/5 1245/3/5
f 1249/3/5 1248/3/5 1247/3/5
f 1250/3/5 1248/3/5 1249/3/5
f 1251/9/5 1250/9/5 1249/9/5
f 1252/9/5 1250/9/5 1251/9/5
f 1253/9/5 1250/9/5 1252/9/5
f 1254/5/5 1253/5/5 1252/5/5
f 1255/5/5 1253/5/5 1254/5/5
f 1256/9/5 1255/9/5 1254/9/5
f 1257/9/5 1255/9/5 1256/9/5
f 1258/9/5 1255/9/5 1257/9/5
f 1259/3/5 1258/3/5 1257/3/5
f 1260/3/5 1258/3/5 1259/3/5
f 1263/5/5 1262/5/5 1261/5/5
f 1264/5/5 1262/5/5 1263/5/5
f 1267/5/5 1266/5/5 1265/5/5
f 1268/5/5 1266/5/5 1267/5/5
f 1269/6/6 1270/6/6 1271/6/6
f 1271/6/6 1270/6/6 1272/6/6
f 1273/5/6 1274/5/6 1275/5/6
f 1275/5/6 1274/5/6 1276/5/6
f 1277/6/6 1278/6/6 1279/6/6
f 1279/6/6 1278/6/6 1280/6/6
f 1281/5/6 1282/5/6 1283/5/6
f 1283/5/6 1282/5/6 1284/5/6
f 1285/3/6 1286/3/6 1287/3/6
f 1287/3/6 1286/3/6 1288/3/6
f 1287/9/6 1288/9/6 1289/9/6
f 1289/9/6 1288/9/6 1290/9/6
f 1290/9/6 1288/9/6 1291/9/6
f 1290/5/6 1291/5/6 1292/5/6
f 1292/5/6 1291/5/6 1293/5/6
f 1292/9/6 1293/9/6 1294/9/6
f 1294/9/6 1293/9/6 1295/9/6
f 1295/9/6 1293/9/6 1296/9/6
f 1295/3/6 1296/3/6 1297/3/6
f 1297/3/6 1296/3/6 1298/3/6
f 1299/6/6 1300/6/6 1301/6/6
f 1301/6/6 1300/6/6 1302/6/6
f 1303/3/6 1304/3/6 1305/3/6
f 1305/3/6 1304/3/6 1306/3/6
f 1305/9/6 1306/9/6 1307/9/6
f 1307/9/6 1306/9/6 1308/9/6
f 1308/9/6 1306/9/6 1309/9/6
f 1308/5/6 1309/5/6 1310/5/6
f 1310/5/6 1309/5/6 1311/5/6
f 1310/9/6 1311/9/6 1312/9/6
f 1312/9/6 1311/9/6 1313/9/6
f 1313/9/6 1311/9/6 1314/9/6
f 1313/3/6 1314/3/6 1315/3/6
f 1315/3/6 1314/3/6 1316/3/6
f 1317/5/6 1318/5/6 1319/5/6
f 1317/5/6 1319/5/6 1320/5/6
f 1317/5/6 1320/5/6 1321/5/6
f 1321/5/6 1320/5/6 1322/5/6
f 1323/5/6 1324/5/6 1325/5/6
f 1325/5/6 1324/5/6 1326/5/6
f 1329/5/6 1330/5/6 1331/5/6
f 1331/5/6 1330/5/6 1332/5/6
f 1327/4/6 1328/4/6 1333/4/6
f 1333/4/6 1328/4/6 1334/4/6
f 1335/5/6 1336/5/6 1337/5/6
f 1337/5/6 1336/5/6 1338/5/6
f 1339/5/6 1340/5/6 1341/5/6
f 1339/5/6 1341/5/6 1342/5/6
f 1339/5/6 1342/5/6 1343/5/6
f 1343/5/6 1342/5/6 1344/5/6
f 1345/3/6 1346/3/6 1349/3/6
f 1349/3/6 1346/3/6 1350/3/6
f 1346/2/6 1347/2/6 1351/2/6
f 1350/3/6 1346/3/6 1351/3/6
f 1347/3/6 1348/3/6 1352/3/6
f 1351/2/6 1347/2/6 1352/2/6
f 1352/3/6 1348/3/6 1353/3/6
f 1349/8/6 1350/8/6 1354/8/6
f 1354/8/6 1350/8/6 1355/8/6
f 1354/3/6 1355/3/6 1360/3/6
f 1355/3/6 1356/3/6 1360/3/6
f 1359/3/6 1360/3/6 1361/3/6
f 1356/2/6 1357/2/6 1362/2/6
f 1361/3/6 1360/3/6 1362/3/6
f 1360/3/6 1356/3/6 1362/3/6
f 1361/2/6 1362/2/6 1363/2/6
f 1362/2/6 1357/2/6 1364/2/6
f 1363/2/6 1362/2/6 1364/2/6
f 1357/3/6 1358/3/6 1365/3/6
f 1365/3/6 1358/3/6 1366/3/6
f 1364/2/6 1357/2/6 1367/2/6
f 1357/3/6 1365/3/6 1367/3/6
f 1367/3/6 1365/3/6 1368/3/6
f 1364/2/6 1367/2/6 1369/2/6
f 1367/2/6 1368/2/6 1369/2/6
f 1369/2/6 1368/2/6 1370/2/6
f 1363/3/6 1364/3/6 1374/3/6
f 1369/3/6 1370/3/6 1375/3/6
f 1371/5/6 1372/5/6 1378/5/6
f 1378/5/6 1372/5/6 1379/5/6
f 1377/3/6 1378/3/6 1381/3/6
f 1378/3/6 1379/3/6 1381/3/6
f 1380/3/6 1381/3/6 1382/3/6
f 1381/3/6 1379/3/6 1383/3/6
f 1382/3/6 1381/3/6 1383/3/6
f 1373/3/6 1374/3/6 1384/3/6
f 1364/2/6 1369/2/6 1385/2/6
f 1384/3/6 1374/3/6 1385/3/6
f 1374/3/6 1364/3/6 1385/3/6
f 1375/3/6 1376/3/6 1386/3/6
f 1385/2/6 1369/2/6 1386/2/6
f 1369/3/6 1375/3/6 1386/3/6
f 1386/3/6 1376/3/6 1387/3/6
f 1388/3/6 1389/3/6 1394/3/6
f 1394/3/6 1389/3/6 1395/3/6
f 1395/3/6 1389/3/6 1396/3/6
f 1396/3/6 1389/3/6 1397/3/6
f 1397/3/6 1389/3/6 1398/3/6
f 1390/3/6 1391/3/6 1399/3/6
f 1399/3/6 1391/3/6 1400/3/6
f 1392/3/6 1393/3/6 1401/3/6
f 1401/3/6 1393/3/6 1402/3/6
f 1397/5/6 1398/5/6 1403/5/6
f 1403/5/6 1398/5/6 1404/5/6
f 1391/2/6 1392/2/6 1405/2/6
f 1392/3/6 1401/3/6 1405/3/6
f 1405/3/6 1401/3/6 1406/3/6
f 1391/2/6 1405/2/6 1407/2/6
f 1405/2/6 1406/2/6 1407/2/6
f 1407/2/6 1406/2/6 1408/2/6
f 1407/3/6 1408/3/6 1409/3/6
f 1400/3/6 1391/3/6 1411/3/6
f 1391/2/6 1407/2/6 1412/2/6
f 1411/3/6 1391/3/6 1412/3/6
f 1411/2/6 1412/2/6 1413/2/6
f 1412/2/6 1407/2/6 1414/2/6
f 1413/2/6 1412/2/6 1414/2/6
f 1413/3/6 1414/3/6 1415/3/6
f 1415/3/6 1414/3/6 1416/3/6
f 1416/3/6 1414/3/6 1417/3/6
f 1417/3/6 1414/3/6 1418/3/6
f 1414/2/6 1407/2/6 1419/2/6
f 1418/3/6 1414/3/6 1419/3/6
f 1409/3/6 1410/3/6 1420/3/6
f 1419/2/6 1407/2/6 1420/2/6
f 1407/3/6 1409/3/6 1420/3/6
f 1420/3/6 1410/3/6 1421/3/6
f 1417/8/6 1418/8/6 1422/8/6
f 1422/8/6 1418/8/6 1423/8/6
f 1422/3/6 1423/3/6 1427/3/6
f 1423/3/6 1424/3/6 1427/3/6
f 1424/2/6 1425/2/6 1428/2/6
f 1427/3/6 1424/3/6 1428/3/6
f 1425/3/6 1426/3/6 1429/3/6
f 1428/2/6 1425/2/6 1429/2/6
f 1429/3/6 1426/3/6 1430/3/6
f 1431/8/6 1432/8/6 1435/8/6
f 1432/9/6 1433/9/6 1436/9/6
f 1435/8/6 1432/8/6 1436/8/6
f 1433/8/6 1434/8/6 1437/8/6
f 1436/9/6 1433/9/6 1437/9/6
f 1437/8/6 1434/8/6 1438/8/6
f 1439/3/6 1440/3/6 1441/3/6
f 1441/3/6 1440/3/6 1442/3/6
f 1443/8/6 1444/8/6 1447/8/6
f 1444/9/6 1445/9/6 1448/9/6
f 1447/8/6 1444/8/6 1448/8/6
f 1445/8/6 1446/8/6 1449/8/6
f 1448/9/6 1445/9/6 1449/9/6
f 1449/8/6 1446/8/6 1450/8/6
f 1451/8/6 1452/8/6 1455/8/6
f 1452/9/6 1453/9/6 1456/9/6
f 1455/8/6 1452/8/6 1456/8/6
f 1453/8/6 1454/8/6 1457/8/6
f 1456/9/6 1453/9/6 1457/9/6
f 1457/8/6 1454/8/6 1458/8/6
f 1459/3/6 1460/3/6 1461/3/6
f 1461/3/6 1460/3/6 1462/3/6
f 1463/8/6 1464/8/6 1467/8/6
f 1464/9/6 1465/9/6 1468/9/6
f 1467/8/6 1464/8/6 1468/8/6
f 1465/8/6 1466/8/6 1469/8/6
f 1468/9/6 1465/9/6 1469/9/6
f 1469/8/6 1466/8/6 1470/8/6
f 1471/8/6 1472/8/6 1473/8/6
f 1473/8/6 1472/8/6 1474/8/6
f 1475/9/6 1476/9/6 1477/9/6
f 1477/9/6 1476/9/6 1478/9/6
f 1479/8/6 1480/8/6 1486/8/6
f 1486/8/6 1480/8/6 1487/8/6
f 1480/9/6 1481/9/6 1488/9/6
f 1487/8/6 1480/8/6 1488/8/6
f 1481/8/6 1482/8/6 1489/8/6
f 1488/9/6 1481/9/6 1489/9/6
f 1489/8/6 1482/8/6 1490/8/6
f 1483/8/6 1484/8/6 1491/8/6
f 1484/9/6 1485/9/6 1492/9/6
f 1491/8/6 1484/8/6 1492/8/6
f 1486/8/6 1487/8/6 1493/8/6
f 1492/9/6 1485/9/6 1493/9/6
f 1485/8/6 1486/8/6 1493/8/6
f 1493/8/6 1487/8/6 1494/8/6
f 1494/8/6 1487/8/6 1498/8/6
f 1495/8/6 1496/8/6 1499/8/6
f 1496/9/6 1497/9/6 1500/9/6
f 1499/8/6 1496/8/6 1500/8/6
f 1497/8/6 1498/8/6 1501/8/6
f 1500/9/6 1497/9/6 1501/9/6
f 1498/8/6 1487/8/6 1502/8/6
f 1501/8/6 1498/8/6 1502/8/6
f 1502/8/6 1487/8/6 1503/8/6
f 1490/8/6 1482/8/6 1506/8/6
f 1502/8/6 1503/8/6 1507/8/6
f 1503/8/6 1504/8/6 1507/8/6
f 1504/9/6 1505/9/6 1508/9/6
f 1507/8/6 1504/8/6 1508/8/6
f 1505/8/6 1506/8/6 1509/8/6
f 1508/9/6 1505/9/6 1509/9/6
f 1506/8/6 1482/8/6 1510/8/6
f 1509/8/6 1506/8/6 1510/8/6
f 1511/9/6 1512/9/6 1513/9/6
f 1513/9/6 1512/9/6 1514/9/6
f 1515/9/6 1516/9/6 1517/9/6
f 1517/9/6 1516/9/6 1518/9/6
f 1519/9/6 1520/9/6 1521/9/6
f 1521/9/6 1520/9/6 1522/9/6
f 1522/9/6 1520/9/6 1523/9/6
f 1523/9/6 1520/9/6 1524/9/6
f 1519/9/6 1521/9/6 1525/9/6
f 1521/7/6 1522/7/6 1525/7/6
f 1522/9/6 1523/9/6 1526/9/6
f 1525/7/6 1522/7/6 1526/7/6
f 1519/9/6 1525/9/6 1527/9/6
f 1525/9/6 1526/9/6 1527/9/6
f 1526/9/6 1523/9/6 1528/9/6
f 1527/9/6 1526/9/6 1528/9/6
f 1519/9/6 1527/9/6 1529/9/6
f 1527/7/6 1528/7/6 1529/7/6
f 1528/9/6 1523/9/6 1530/9/6
f 1529/7/6 1528/7/6 1530/7/6
f 1519/9/6 1529/9/6 1531/9/6
f 1529/9/6 1530/9/6 1531/9/6
f 1530/9/6 1523/9/6 1532/9/6
f 1531/9/6 1530/9/6 1532/9/6
f 1519/9/6 1531/9/6 1533/9/6
f 1531/7/6 1532/7/6 1533/7/6
f 1532/9/6 1523/9/6 1534/9/6
f 1533/7/6 1532/7/6 1534/7/6
f 1519/9/6 1533/9/6 1535/9/6
f 1533/9/6 1534/9/6 1535/9/6
f 1534/9/6 1523/9/6 1536/9/6
f 1535/9/6 1534/9/6 1536/9/6
f 1519/9/6 1535/9/6 1537/9/6
f 1535/7/6 1536/7/6 1537/7/6
f 1536/9/6 1523/9/6 1538/9/6
f 1537/7/6 1536/7/6 1538/7/6
f 1519/9/6 1537/9/6 1539/9/6
f 1537/9/6 1538/9/6 1539/9/6
f 1538/9/6 1523/9/6 1540/9/6
f 1539/9/6 1538/9/6 1540/9/6
f 1519/9/6 1539/9/6 1541/9/6
f 1539/7/6 1540/7/6 1541/7/6
f 1540/9/6 1523/9/6 1542/9/6
f 1541/7/6 1540/7/6 1542/7/6
f 1523/4/6 1524/4/6 1543/4/6
f 1542/9/6 1523/9/6 1543/9/6
f 1524/9/6 1520/9/6 1544/9/6
f 1543/4/6 1524/4/6 1544/4/6
f 1542/9/6 1543/9/6 1545/9/6
f 1541/9/6 1542/9/6 1545/9/6
f 1543/9/6 1544/9/6 1545/9/6
f 1519/9/6 1541/9/6 1545/9/6
f 1544/9/6 1520/9/6 1546/9/6
f 1545/9/6 1544/9/6 1546/9/6
f 1547/8/6 1548/8/6 1549/8/6
f 1549/8/6 1548/8/6 1550/8/6
f 1551/3/6 1552/3/6 1553/3/6
f 1553/3/6 1552/3/6 1554/3/6
f 1555/3/6 1556/3/6 1559/3/6
f 1556/2/6 1557/2/6 1559/2/6
f 1557/3/6 1558/3/6 1560/3/6
f 1559/2/6 1557/2/6 1560/2/6
f 1555/3/6 1559/3/6 1561/3/6
f 1559/1/6 1560/1/6 1561/1/6
f 1560/3/6 1558/3/6 1562/3/6
f 1561/1/6 1560/1/6 1562/1/6
f 1555/3/6 1561/3/6 1563/3/6
f 1561/2/6 1562/2/6 1564/2/6
f 1563/3/6 1561/3/6 1564/3/6
f 1562/3/6 1558/3/6 1565/3/6
f 1564/2/6 1562/2/6 1565/2/6
f 1565/3/6 1558/3/6 1566/3/6
